<svg width="45" height="55" viewBox="0 0 45 55" fill="none" xmlns="http://www.w3.org/2000/svg">
<path fill-rule="evenodd" clip-rule="evenodd" d="M9.00282 14.3771C8.9661 12.6334 9.28807 10.9001 9.94988 9.27878C10.6117 7.65742 11.6 6.1806 12.857 4.93482C14.1139 3.68903 15.6143 2.69931 17.2701 2.02366C18.9259 1.34801 20.7039 1 22.5 1C24.2961 1 26.0741 1.34801 27.7299 2.02366C29.3857 2.69931 30.8861 3.68903 32.143 4.93482C33.4 6.1806 34.3883 7.65742 35.0501 9.27878C35.7119 10.9001 36.0339 12.6334 35.9972 14.3771V20H9.03103L9.00282 14.3771Z" stroke="#817757" stroke-width="2" stroke-linecap="round"/>
<path d="M41.2495 20H3.75046C2.23142 20 1 21.258 1 22.8097V51.1903C1 52.742 2.23142 54 3.75046 54H41.2495C42.7686 54 44 52.742 44 51.1903V22.8097C44 21.258 42.7686 20 41.2495 20Z" stroke="#817757" stroke-width="2" stroke-linecap="round"/>
<path d="M23.161 39.1624C25.6928 39.1118 27.7041 37.0184 27.6534 34.4867C27.6028 31.9549 25.5094 29.9436 22.9777 29.9943C20.4459 30.0449 18.4346 32.1383 18.4852 34.67C18.5359 37.2018 20.6293 39.2131 23.161 39.1624Z" stroke="#817757" stroke-width="2" stroke-linecap="round"/>
<path d="M23 40V44" stroke="#817757" stroke-width="2" stroke-linecap="round"/>
</svg>
