<svg width="850" height="799" viewBox="0 0 850 799" fill="none" xmlns="http://www.w3.org/2000/svg">
<mask id="path-1-inside-1_296_26" fill="white">
<path d="M399 799C293.179 799 191.691 756.963 116.864 682.136C42.0374 607.309 3.89687e-05 505.821 4.35943e-05 400C4.82199e-05 294.179 42.0374 192.691 116.864 117.864C191.691 43.0374 293.179 0.999994 399 0.999983L399 400L399 799Z"/>
</mask>
<path d="M399 799C293.179 799 191.691 756.963 116.864 682.136C42.0374 607.309 3.89687e-05 505.821 4.35943e-05 400C4.82199e-05 294.179 42.0374 192.691 116.864 117.864C191.691 43.0374 293.179 0.999994 399 0.999983L399 400L399 799Z" stroke="#817757" stroke-width="6" mask="url(#path-1-inside-1_296_26)"/>
<path d="M1226 399.5L397 796L397 2.99992L1226 399.5Z" stroke="#817757" stroke-width="3"/>
<rect x="798.5" y="2.5" width="795" height="795" transform="rotate(90 798.5 2.5)" stroke="#817757" stroke-width="3"/>
</svg>
