<svg width="43" height="62" viewBox="0 0 43 62" fill="none" xmlns="http://www.w3.org/2000/svg">
<path d="M40.4697 60.79L22.9936 47.5148C22.5584 47.1842 22.0279 47.0053 21.4825 47.0053C20.9371 47.0053 20.4066 47.1842 19.9714 47.5148L2.49384 60.79C1.87984 61.2563 1 60.8157 1 60.0415V2.70675C1 2.25914 1.17675 1.82986 1.49137 1.51332C1.80599 1.19678 2.23272 1.0189 2.6777 1.0188H40.2851C40.7301 1.0189 41.1568 1.19678 41.4714 1.51332C41.786 1.82986 41.9628 2.25914 41.9628 2.70675V60.0415C41.9628 60.8157 41.0829 61.2567 40.4697 60.79Z" stroke="#817757" stroke-width="2" stroke-miterlimit="10"/>
<path d="M25.1395 21.1877L32.4779 21.9036C32.5062 21.9071 32.533 21.9186 32.5551 21.9369C32.5772 21.9551 32.5936 21.9793 32.6025 22.0066C32.6114 22.0339 32.6124 22.0631 32.6054 22.091C32.5984 22.1188 32.5836 22.1441 32.5628 22.1638L26.8206 27.3551C26.8002 27.3738 26.7852 27.3979 26.7775 27.4245C26.7697 27.4512 26.7694 27.4796 26.7766 27.5064L28.7717 34.8384C28.7786 34.8672 28.7771 34.8974 28.7671 34.9253C28.7572 34.9532 28.7393 34.9776 28.7157 34.9953C28.6921 35.0131 28.6638 35.0235 28.6344 35.0253C28.605 35.027 28.5757 35.02 28.5502 35.0052L21.6051 30.7057C21.5818 30.6916 21.5551 30.6842 21.5279 30.6842C21.5006 30.6842 21.4739 30.6916 21.4506 30.7057L14.469 34.936C14.4434 34.9506 14.414 34.9574 14.3846 34.9553C14.3551 34.9533 14.3269 34.9426 14.3035 34.9246C14.28 34.9066 14.2624 34.882 14.2527 34.854C14.243 34.8259 14.2418 34.7957 14.2491 34.7669L16.3193 27.4474C16.3267 27.4207 16.3267 27.3925 16.3192 27.3658C16.3117 27.3391 16.297 27.315 16.2768 27.2961L10.5869 22.0496C10.5664 22.0296 10.5519 22.0043 10.5452 21.9764C10.5385 21.9485 10.5398 21.9193 10.549 21.8921C10.5582 21.865 10.5749 21.841 10.5971 21.823C10.6193 21.805 10.6461 21.7937 10.6745 21.7905L18.0222 21.151C18.0481 21.1485 18.0728 21.1394 18.0941 21.1245C18.1154 21.1096 18.1324 21.0894 18.1437 21.0659L21.4803 13.9555C21.4927 13.9302 21.5119 13.909 21.5358 13.8941C21.5596 13.8792 21.5871 13.8713 21.6151 13.8713C21.6431 13.8713 21.6706 13.8792 21.6944 13.8941C21.7182 13.909 21.7374 13.9302 21.7499 13.9555L25.0173 21.1007C25.0282 21.1248 25.0452 21.1455 25.0667 21.1608C25.0882 21.1761 25.1133 21.1854 25.1395 21.1877Z" stroke="#817757" stroke-width="2" stroke-miterlimit="10"/>
</svg>
