<svg width="56" height="56" viewBox="0 0 56 56" fill="none" xmlns="http://www.w3.org/2000/svg">
<path d="M23.6455 55C23.6455 51.5161 26.2584 42.8064 26.2584 42.8064C23.6455 40.1935 25.3874 36.7097 25.3874 36.7097C25.3874 36.7097 28.0003 37.5806 30.6132 36.7097C30.6132 36.7097 32.3552 40.1935 29.7423 42.8064C29.7423 42.8064 32.3552 51.5161 32.3552 55" stroke="#817757" stroke-width="2" stroke-linecap="round" stroke-linejoin="round"/>
<path d="M21.0323 28.3974V32.3548C21.0323 32.3548 21.9032 35.8387 25.3871 36.7097C25.3871 36.7097 23.6452 42.8064 15.8065 44.5484V34.0968L9.45383 36.3656C7.68626 36.997 6.12134 38.0928 4.92345 39.5378C3.72557 40.9829 2.93891 42.7238 2.64613 44.5778L1 55" stroke="#817757" stroke-width="2" stroke-linecap="round" stroke-linejoin="round"/>
<path d="M34.9681 28.3974V32.3548C34.9681 32.3548 34.0972 35.8387 30.6133 36.7097C30.6133 36.7097 32.3552 42.8064 40.1939 44.5484V34.0968L46.5465 36.3656C48.3141 36.997 49.879 38.0928 51.0769 39.5378C52.2748 40.9829 53.0615 42.7238 53.3542 44.5778L55.0004 55" stroke="#817757" stroke-width="2" stroke-linecap="round" stroke-linejoin="round"/>
<path d="M23.6447 29.9423C20.335 28.7447 18.1718 25.8052 17.5479 20.1613L16.677 10.5806C16.2415 6.00806 19.7254 4.04839 21.4673 4.04839C21.4673 3.17742 22.7737 1 27.1286 1H28.8705C32.7028 1 40.1202 3.4681 39.2013 11.1631L38.4512 20.1613C37.8241 25.8052 35.6619 28.7403 32.3544 29.9412" stroke="#817757" stroke-width="2" stroke-linecap="round" stroke-linejoin="round"/>
<path d="M24.5166 7.96774C24.5166 7.96774 27.1295 14.0917 39.0324 13.1935" stroke="#817757" stroke-width="2" stroke-linecap="round" stroke-linejoin="round"/>
<path d="M21.9034 11.4516C21.9034 11.4516 20.5425 14.7776 17.0586 14.7776" stroke="#817757" stroke-width="2" stroke-linecap="round" stroke-linejoin="round"/>
</svg>
