<svg width="65" height="65" viewBox="0 0 65 65" fill="none" xmlns="http://www.w3.org/2000/svg">
<path d="M43.6719 58.9062V56.875L41.6406 51.7969C43.1857 51.0834 44.4891 49.9347 45.3911 48.4915C46.2931 47.0483 46.7545 45.3734 46.7188 43.6719C46.7187 36.5625 39.6094 35.5469 37.5781 28.4375" stroke="#817757" stroke-width="2" stroke-linecap="round" stroke-linejoin="round"/>
<path d="M21.3281 22.3438V51.7969L19.2969 56.875V58.9062" stroke="#817757" stroke-width="2" stroke-linecap="round" stroke-linejoin="round"/>
<path d="M34.5312 58.9062H19.2969C19.2969 58.9062 17.2656 59.9219 17.2656 62.9688V63.9844H45.7031V62.9688C45.7031 59.9219 43.6719 58.9062 43.6719 58.9062H40.625" stroke="#817757" stroke-width="2" stroke-linecap="round" stroke-linejoin="round"/>
<path d="M52.8125 24.375L51.543 26.4824C51.0426 27.3161 50.266 27.9481 49.348 28.2687C48.43 28.5892 47.4287 28.578 46.5182 28.2369L41.6406 26.4062C41.6406 26.4062 35.5469 29.4531 30.4688 25.3906" stroke="#817757" stroke-width="2" stroke-linecap="round" stroke-linejoin="round"/>
<path d="M36.5625 9.14062L39.6094 4.0625H33.5156C23.9789 4.0625 15.2344 9.14062 15.2344 21.3281V36.5625" stroke="#817757" stroke-width="2" stroke-linecap="round" stroke-linejoin="round"/>
<path d="M52.8125 24.375C43.6719 13.2031 36.5625 9.14062 36.5625 9.14062" stroke="#817757" stroke-width="2" stroke-linecap="round" stroke-linejoin="round"/>
<path d="M31.7205 9.77783C25.3348 11.5552 21.3281 14.9347 21.3281 22.3437" stroke="#817757" stroke-width="2" stroke-linecap="round" stroke-linejoin="round"/>
</svg>
