<svg width="608" height="910" viewBox="0 0 608 910" fill="none" xmlns="http://www.w3.org/2000/svg">
<path d="M606 2H3V600H606V2Z" stroke="#817757" stroke-width="3" stroke-miterlimit="10"/>
<path d="M3 298H606C606 378.095 574.236 454.91 517.695 511.546C461.154 568.182 384.468 600 304.508 600C264.914 600.002 225.707 592.192 189.127 577.016C152.546 561.84 119.308 539.595 91.3105 511.552C63.3127 483.508 41.1035 450.215 25.9512 413.574C10.7988 376.933 3 337.66 3 298Z" stroke="#817757" stroke-width="3" stroke-miterlimit="10"/>
<path d="M2 153C2 69.605 69.605 2 153 2V2C236.395 2 304 69.605 304 153V908H2V153Z" stroke="#817757" stroke-width="3"/>
</svg>
