<svg width="58" height="40" viewBox="0 0 58 40" fill="none" xmlns="http://www.w3.org/2000/svg">
<path d="M22.4555 17.335C22.026 18.3181 21.8408 19.3905 21.9156 20.4608C21.9904 21.531 22.3231 22.5673 22.8852 23.4811C23.4473 24.3949 24.2221 25.1592 25.1436 25.7086C26.0651 26.2581 27.1058 26.5765 28.1769 26.6365C29.2481 26.6966 30.3179 26.4967 31.2951 26.0537C32.2722 25.6107 33.1277 24.9379 33.7885 24.0927C34.4492 23.2475 34.8957 22.255 35.0897 21.1998C35.2838 20.1447 35.2197 19.0582 34.9028 18.0332" stroke="#817757" stroke-width="2" stroke-linecap="round" stroke-linejoin="round"/>
<path d="M30.5162 13.6469C29.6702 13.3849 28.7805 13.2944 27.8992 13.3809C27.0179 13.4674 26.1627 13.729 25.3838 14.1504" stroke="#817757" stroke-width="2" stroke-linecap="round" stroke-linejoin="round"/>
<path d="M30.5166 13.647C30.0229 13.8656 29.5898 14.2013 29.2549 14.6248C28.92 15.0484 28.6933 15.5472 28.5944 16.078C28.4954 16.6089 28.5273 17.1558 28.6871 17.6716C28.847 18.1874 29.1301 18.6565 29.512 19.0383C29.8938 19.4201 30.3628 19.7032 30.8786 19.8631C31.3944 20.023 31.9413 20.0548 32.4722 19.9559C33.003 19.857 33.5019 19.6302 33.9254 19.2953C34.349 18.9604 34.6846 18.5273 34.9033 18.0336" stroke="#817757" stroke-width="2" stroke-linecap="round" stroke-linejoin="round"/>
<path d="M28.5502 32.3499C35.3709 32.3499 40.9002 26.8206 40.9002 19.9999C40.9002 13.1792 35.3709 7.6499 28.5502 7.6499C21.7295 7.6499 16.2002 13.1792 16.2002 19.9999C16.2002 26.8206 21.7295 32.3499 28.5502 32.3499Z" stroke="#817757" stroke-width="2" stroke-linecap="round" stroke-linejoin="round"/>
<path d="M56.1 19.9999C56.1 19.9999 46.6 7.6499 28.55 7.6499C10.5 7.6499 1 19.9999 1 19.9999" stroke="#817757" stroke-width="2" stroke-linecap="round" stroke-linejoin="round"/>
<path d="M56.1 20C56.1 20 46.6 32.35 28.55 32.35C10.5 32.35 1 20 1 20" stroke="#817757" stroke-width="2" stroke-linecap="round" stroke-linejoin="round"/>
<path d="M28.5498 7.6502V1.9502" stroke="#817757" stroke-width="2" stroke-linecap="round" stroke-linejoin="round"/>
<path d="M13.35 10.5L10.5 5.75" stroke="#817757" stroke-width="2" stroke-linecap="round" stroke-linejoin="round"/>
<path d="M43.75 10.5L46.6 5.75" stroke="#817757" stroke-width="2" stroke-linecap="round" stroke-linejoin="round"/>
<path d="M28.5498 32.3501V38.0501" stroke="#817757" stroke-width="2" stroke-linecap="round" stroke-linejoin="round"/>
<path d="M13.35 29.5L10.5 34.25" stroke="#817757" stroke-width="2" stroke-linecap="round" stroke-linejoin="round"/>
<path d="M43.75 29.5L46.6 34.25" stroke="#817757" stroke-width="2" stroke-linecap="round" stroke-linejoin="round"/>
</svg>
