<svg width="50" height="69" viewBox="0 0 50 69" fill="none" xmlns="http://www.w3.org/2000/svg">
<path d="M25 41C33.8366 41 41 33.8366 41 25C41 16.1634 33.8366 9 25 9C16.1634 9 9 16.1634 9 25C9 33.8366 16.1634 41 25 41Z" stroke="#817757" stroke-width="2" stroke-miterlimit="10"/>
<path d="M49 25C49 27.0556 46.6913 28.7808 46.1845 30.6769C45.6602 32.639 46.7815 35.2843 45.7881 37.004C44.7784 38.7467 41.9185 39.0906 40.5044 40.5042C39.0902 41.9177 38.745 44.7797 37.0044 45.7873C35.2867 46.7815 32.6415 45.6601 30.6774 46.1844C28.7807 46.6913 27.0556 49 25 49C22.9444 49 21.2193 46.6913 19.3226 46.1844C17.3612 45.6601 14.716 46.7815 12.9956 45.7873C11.253 44.7777 10.9091 41.9183 9.49561 40.5042C8.08215 39.09 5.22021 38.7447 4.21194 37.004C3.21847 35.2863 4.33982 32.641 3.81549 30.6769C3.30866 28.7808 1 27.0556 1 25C1 22.9444 3.30866 21.2192 3.81549 19.3224C4.33982 17.361 3.21847 14.7157 4.21194 12.9953C5.22156 11.2533 8.08147 10.9087 9.49561 9.49518C10.9098 8.08167 11.255 5.21966 12.9956 4.21135C14.7133 3.21786 17.3585 4.33924 19.3226 3.8149C21.22 3.30873 22.9451 1 25.0007 1C27.0563 1 28.7814 3.30873 30.6781 3.81557C32.6395 4.33992 35.2847 3.21853 37.005 4.21202C38.7476 5.22167 39.0916 8.08167 40.5051 9.49585C41.9185 10.91 44.7805 11.2553 45.7887 12.996C46.7822 14.7137 45.6608 17.359 46.1852 19.3231C46.6913 21.2185 49 22.943 49 25Z" stroke="#817757" stroke-width="2" stroke-miterlimit="10"/>
<path d="M38.7886 43L49 60.6542L39.9876 59.7652L36.2528 68L25 48.5441" stroke="#817757" stroke-width="2" stroke-linecap="round" stroke-linejoin="round"/>
<path d="M11.2114 43L1 60.6542L10.0124 59.7652L13.7472 68L25 48.5441" stroke="#817757" stroke-width="2" stroke-linecap="round" stroke-linejoin="round"/>
<path d="M16 25.2969L21.7987 31L34 19" stroke="#817757" stroke-width="2" stroke-linecap="round" stroke-linejoin="round"/>
</svg>
