<svg width="55" height="47" viewBox="0 0 55 47" fill="none" xmlns="http://www.w3.org/2000/svg">
<path d="M47.0955 9H7.90451C4.09126 9 1 12.0786 1 15.8762V39.1238C1 42.9214 4.09126 46 7.90451 46H47.0955C50.9087 46 54 42.9214 54 39.1238V15.8762C54 12.0786 50.9087 9 47.0955 9Z" stroke="#817757" stroke-width="2" stroke-miterlimit="10"/>
<path d="M37 9V5.82553C37 4.54572 36.5451 3.31833 35.7354 2.41336C34.9256 1.5084 33.8274 1 32.6823 1H22.3188C21.7517 0.999845 21.1901 1.12455 20.6662 1.36698C20.1422 1.60942 19.6661 1.96484 19.265 2.41295C18.864 2.86105 18.5458 3.39307 18.3288 3.9786C18.1117 4.56414 18 5.19173 18 5.82553V9" stroke="#817757" stroke-width="2" stroke-miterlimit="10"/>
<path d="M54 21C54 22.5913 53.3094 24.1174 52.0801 25.2426C50.8507 26.3679 49.1834 27 47.4449 27H7.55509C5.81657 27 4.14926 26.3679 2.91994 25.2426C1.69063 24.1174 1 22.5913 1 21" stroke="#817757" stroke-width="2" stroke-miterlimit="10"/>
<path d="M31 27V34H24V27" stroke="#817757" stroke-width="2" stroke-miterlimit="10"/>
</svg>
