<svg width="33" height="23" viewBox="0 0 33 23" fill="none" xmlns="http://www.w3.org/2000/svg">
<path d="M28.1964 0H4.19641C3.13555 0 2.11813 0.421428 1.36798 1.17157C0.617839 1.92172 0.196411 2.93913 0.196411 4V19C0.196411 20.0609 0.617839 21.0783 1.36798 21.8284C2.11813 22.5786 3.13555 23 4.19641 23H28.1964C29.2573 23 30.2747 22.5786 31.0248 21.8284C31.775 21.0783 32.1964 20.0609 32.1964 19V4C32.1964 2.93913 31.775 1.92172 31.0248 1.17157C30.2747 0.421428 29.2573 0 28.1964 0ZM30.1964 19C30.1964 19.5304 29.9857 20.0391 29.6106 20.4142C29.2356 20.7893 28.7268 21 28.1964 21H4.19641C3.66598 21 3.15727 20.7893 2.7822 20.4142C2.40712 20.0391 2.19641 19.5304 2.19641 19V4C2.19641 3.46957 2.40712 2.96086 2.7822 2.58578C3.15727 2.21071 3.66598 2 4.19641 2H28.1964C28.7268 2 29.2356 2.21071 29.6106 2.58578C29.9857 2.96086 30.1964 3.46957 30.1964 4V19Z" fill="#817757"/>
<path d="M26.5665 5.22999L16.1965 13.71L5.82645 5.22999C5.72772 5.13096 5.60931 5.05374 5.47888 5.00331C5.34845 4.95288 5.20889 4.93038 5.06922 4.93724C4.92955 4.9441 4.79287 4.98018 4.66801 5.04315C4.54315 5.10611 4.43288 5.19456 4.34433 5.30279C4.25578 5.41102 4.19091 5.53662 4.15391 5.67148C4.11692 5.80634 4.10862 5.94746 4.12955 6.08572C4.15049 6.22399 4.20018 6.35632 4.27544 6.47419C4.35069 6.59205 4.44983 6.69282 4.56645 6.76999L15.5665 15.77C15.7446 15.9145 15.967 15.9934 16.1965 15.9934C16.4259 15.9934 16.6483 15.9145 16.8265 15.77L27.8265 6.76999C28.0014 6.59455 28.1049 6.36044 28.1171 6.11301C28.1292 5.86557 28.0491 5.62244 27.8922 5.43071C27.7354 5.23897 27.5129 5.11229 27.268 5.07521C27.023 5.03813 26.773 5.09328 26.5665 5.22999Z" fill="#817757"/>
</svg>
