<svg width="27" height="33" viewBox="0 0 27 33" fill="none" xmlns="http://www.w3.org/2000/svg">
<path d="M13.9579 0.314941C10.5101 0.314941 7.20347 1.68458 4.7655 4.12255C2.32753 6.56052 0.957886 9.86713 0.957886 13.3149C0.957886 19.4949 7.65789 26.9149 13.2879 32.0549L13.9779 32.6849L14.6479 32.0349C20.8779 26.0349 26.9579 19.6649 26.9579 13.3149C26.9579 9.86713 25.5882 6.56052 23.1503 4.12255C20.7123 1.68458 17.4057 0.314941 13.9579 0.314941ZM13.9579 29.9349C6.86789 23.3149 2.95789 17.4349 2.95789 13.3149C2.95789 10.3976 4.11681 7.59967 6.17971 5.53677C8.24261 3.47387 11.0405 2.31494 13.9579 2.31494C16.8753 2.31494 19.6732 3.47387 21.7361 5.53677C23.799 7.59967 24.9579 10.3976 24.9579 13.3149C24.9579 18.6649 19.6179 24.4949 13.9579 29.9349Z" fill="#817757"/>
<path d="M13.9579 8.31494C12.969 8.31494 12.0023 8.60819 11.18 9.15759C10.3578 9.707 9.71693 10.4879 9.33849 11.4015C8.96005 12.3152 8.86103 13.3205 9.05396 14.2904C9.24689 15.2603 9.72309 16.1512 10.4224 16.8505C11.1216 17.5497 12.0125 18.0259 12.9824 18.2189C13.9523 18.4118 14.9577 18.3128 15.8713 17.9343C16.7849 17.5559 17.5658 16.915 18.1152 16.0928C18.6646 15.2706 18.9579 14.3038 18.9579 13.3149C18.9579 11.9889 18.4311 10.7171 17.4934 9.77941C16.5557 8.84173 15.284 8.31494 13.9579 8.31494ZM13.9579 16.3149C13.3645 16.3149 12.7845 16.139 12.2912 15.8093C11.7978 15.4797 11.4133 15.0112 11.1863 14.463C10.9592 13.9148 10.8998 13.3116 11.0155 12.7297C11.1313 12.1477 11.417 11.6132 11.8366 11.1936C12.2561 10.7741 12.7907 10.4883 13.3726 10.3726C13.9546 10.2568 14.5578 10.3162 15.1059 10.5433C15.6541 10.7704 16.1227 11.1549 16.4523 11.6482C16.7819 12.1416 16.9579 12.7216 16.9579 13.3149C16.9579 14.1106 16.6418 14.8737 16.0792 15.4363C15.5166 15.9989 14.7535 16.3149 13.9579 16.3149Z" fill="#817757"/>
</svg>
