<svg width="29" height="29" viewBox="0 0 29 29" fill="none" xmlns="http://www.w3.org/2000/svg">
<path fill-rule="evenodd" clip-rule="evenodd" d="M0 29C0.163219 28.374 0.305545 27.8299 0.452023 27.2845C0.931914 25.5426 1.42854 23.8035 1.87914 22.0574C1.94486 21.778 1.91439 21.4847 1.79263 21.2246C-2.65613 12.7885 1.93216 2.57584 11.2691 0.395343C19.7467 -1.58113 27.3678 4.11094 28.7586 11.7253C30.2067 19.6659 24.992 27.2109 17.0682 28.5892C13.9196 29.1305 10.9106 28.6697 8.03819 27.2803C7.75965 27.1537 7.44747 27.1202 7.14817 27.1845C3.31881 28.1325 0.772847 28.8501 0 29ZM3.36763 25.6966C4.80869 25.3233 6.1354 24.9929 7.44952 24.6251C7.61445 24.5759 7.78812 24.5628 7.95863 24.5867C8.12914 24.6107 8.29238 24.6712 8.43715 24.7639C10.9259 26.1922 13.5988 26.7251 16.4433 26.2685C23.0069 25.2206 27.5031 19.1107 26.4987 12.6067C26.2609 11.0133 25.7033 9.48384 24.8589 8.1094C24.0146 6.73495 22.9008 5.54365 21.584 4.60649C20.2671 3.66932 18.7742 3.00545 17.194 2.65444C15.6139 2.30342 13.9789 2.27245 12.3865 2.56335C4.26322 4.04709 -0.0488126 13.0592 3.9898 20.1906C4.43761 20.9817 4.56176 21.6341 4.26043 22.4738C3.90191 23.4926 3.68709 24.5488 3.36763 25.6966Z" fill="#817757"/>
<path fill-rule="evenodd" clip-rule="evenodd" d="M18.3782 20.9928C15.4857 20.8968 10.876 18.7687 7.719 13.6638C6.59804 11.8488 6.75964 9.77673 8.40248 8.3549C8.95724 7.87252 9.65357 7.98979 10.3056 8.08839C10.4657 8.11105 10.633 8.34025 10.7131 8.50815C11.1349 9.40095 11.5481 10.2924 11.9141 11.2066C12.1085 11.6889 11.7511 12.1393 11.0033 12.9389C10.7645 13.192 10.7173 13.4292 10.9018 13.7237C12.0575 15.6072 13.8758 17.0608 16.049 17.8386C16.1825 17.899 16.3349 17.9126 16.4783 17.8768C16.6216 17.8411 16.7464 17.7585 16.8297 17.6441C18.0122 16.2995 18.1337 15.9118 18.7557 16.1783C21.7497 17.5108 21.9827 17.5668 21.997 17.8839C22.0943 20.2412 19.7808 21.0887 18.3782 20.9928Z" fill="#817757"/>
</svg>
