<svg width="27" height="25" viewBox="0 0 27 25" fill="none" xmlns="http://www.w3.org/2000/svg">
<path fill-rule="evenodd" clip-rule="evenodd" d="M26.9868 1.90454L23.5354 23.4819C23.3709 24.5115 22.0419 24.8382 21.1167 24.0984L13.0215 17.5636C11.8678 16.6326 11.6912 15.0581 12.6067 14.0606L19.1032 7.00543C19.4805 6.59484 18.8613 6.03014 18.3836 6.34702L8.38371 13.0052C8.03026 13.2348 7.62633 13.3711 7.20833 13.4019C6.79033 13.4326 6.37139 13.3569 5.98924 13.1815L0.653689 10.7488C0.447604 10.6562 0.274524 10.501 0.15801 10.3045C0.0414957 10.108 -0.0127899 9.87967 0.00254251 9.65057C0.0178749 9.42148 0.10208 9.20277 0.243696 9.02422C0.385311 8.84566 0.577456 8.71594 0.793971 8.65271L24.9624 0.587691C26 0.24122 27.1355 0.971159 26.9868 1.90454Z" fill="#817757"/>
</svg>
