<svg width="28" height="29" viewBox="0 0 28 29" fill="none" xmlns="http://www.w3.org/2000/svg">
<path fill-rule="evenodd" clip-rule="evenodd" d="M21 11.5C21 16.7467 16.7467 21 11.5 21C6.25329 21 2 16.7467 2 11.5C2 6.25329 6.25329 2 11.5 2C16.7467 2 21 6.25329 21 11.5ZM18.3351 20.7493C16.4243 22.1636 14.0598 23 11.5 23C5.14873 23 0 17.8513 0 11.5C0 5.14873 5.14873 0 11.5 0C17.8513 0 23 5.14873 23 11.5C23 14.5703 21.7968 17.3595 19.8362 19.422L27.7072 27.293C28.0977 27.6835 28.0977 28.3167 27.7072 28.7072C27.3167 29.0977 26.6835 29.0977 26.293 28.7072L18.3351 20.7493Z" fill="#817757"/>
</svg>
