<svg width="31" height="31" viewBox="0 0 31 31" fill="none" xmlns="http://www.w3.org/2000/svg">
<path d="M25.4691 19.2919C25.2444 19.0466 24.973 18.8486 24.6707 18.7095C24.3685 18.5704 24.0416 18.493 23.7091 18.4819C23.3779 18.4921 23.0521 18.5691 22.7514 18.7083C22.4507 18.8475 22.1812 19.046 21.9591 19.2919C21.1257 20.0986 20.3057 20.9186 19.4991 21.7519C19.4531 21.813 19.3944 21.8634 19.3271 21.8996C19.2598 21.9359 19.1854 21.9571 19.1091 21.9619C19.0092 21.9584 18.9123 21.9272 18.8291 21.8719C18.2991 21.5819 17.7291 21.3519 17.2191 21.0319C14.8777 19.5127 12.8004 17.6211 11.0691 15.4319C10.168 14.3722 9.42681 13.1863 8.86909 11.9119C8.80866 11.807 8.78755 11.6839 8.80953 11.5648C8.83152 11.4458 8.89516 11.3384 8.98908 11.2619C9.81908 10.4619 10.6191 9.65191 11.4191 8.83191C11.6834 8.61233 11.8962 8.33721 12.0422 8.02611C12.1882 7.71501 12.2639 7.37557 12.2639 7.03191C12.2639 6.68826 12.1882 6.34881 12.0422 6.03772C11.8962 5.72662 11.6834 5.4515 11.4191 5.23191C10.7691 4.59191 10.1291 3.95191 9.48908 3.30191C8.84908 2.65191 8.16908 1.97191 7.48908 1.30191C7.27038 1.05148 7.00062 0.850748 6.69791 0.713211C6.39521 0.575674 6.06656 0.504517 5.73408 0.504517C5.40159 0.504517 5.07296 0.575674 4.77026 0.713211C4.46755 0.850748 4.19779 1.05148 3.97909 1.30191C3.14909 2.11191 2.34909 2.95191 1.50909 3.75191C0.757053 4.45607 0.305699 5.42323 0.249076 6.45191C0.176341 8.13768 0.480384 9.81845 1.13908 11.3719C2.37865 14.6094 4.17583 17.6047 6.44909 20.2219C9.43041 23.8015 13.1392 26.7057 17.3291 28.7419C19.1935 29.7167 21.2329 30.3115 23.3291 30.4919H23.7191C24.3579 30.5175 24.9943 30.4007 25.5824 30.1499C26.1705 29.8991 26.6954 29.5206 27.1191 29.0419C27.8291 28.2519 28.6191 27.5319 29.3691 26.7819C29.6284 26.5613 29.8367 26.287 29.9796 25.9779C30.1225 25.6688 30.1964 25.3324 30.1964 24.9919C30.1964 24.6514 30.1225 24.315 29.9796 24.0059C29.8367 23.6969 29.6284 23.4225 29.3691 23.2019C28.0958 21.9019 26.7957 20.5986 25.4691 19.2919ZM27.9891 25.4019L27.2391 26.1419C26.7191 26.6419 26.1791 27.1419 25.6691 27.7319C25.4349 28.0041 25.1401 28.2174 24.8083 28.3547C24.4765 28.4919 24.1171 28.5492 23.7591 28.5219H23.4791C21.6455 28.3587 19.8634 27.8282 18.2391 26.9619C14.3012 25.0495 10.8143 22.3227 8.00909 18.9619C5.87537 16.5198 4.18341 13.7247 3.00909 10.7019C2.45593 9.42226 2.19624 8.035 2.24908 6.64191C2.25668 6.37614 2.31719 6.11457 2.42709 5.87246C2.53698 5.63036 2.69403 5.4126 2.88908 5.23191C3.40908 4.74191 3.88908 4.23191 4.40908 3.72191C4.72908 3.40191 5.04908 3.07191 5.40908 2.72191C5.50173 2.61594 5.62342 2.53945 5.75909 2.50191C5.89911 2.53586 6.025 2.61279 6.11909 2.72191C6.55909 3.15191 6.99908 3.59191 7.42908 4.03191L8.08909 4.69191L9.08909 5.69191L10.0391 6.64191C10.4091 7.01191 10.3891 7.08191 10.0391 7.42191L9.70908 7.76191C9.01908 8.46191 8.33909 9.14191 7.61909 9.84191C7.24395 10.1995 6.9887 10.6645 6.88843 11.1731C6.78817 11.6816 6.84779 12.2086 7.05909 12.6819C7.69716 14.1278 8.53905 15.4748 9.55909 16.6819C11.4301 19.0309 13.6731 21.0577 16.1991 22.6819C16.5991 22.9219 16.9891 23.1219 17.3391 23.2919L17.8791 23.5619C18.2652 23.7861 18.7027 23.9067 19.1491 23.9119C19.4941 23.9083 19.8347 23.8337 20.1495 23.6926C20.4644 23.5515 20.7468 23.347 20.9791 23.0919C21.7691 22.2819 22.5691 21.4919 23.4091 20.6619C23.4946 20.5505 23.6139 20.4698 23.7491 20.4319C23.8868 20.4705 24.0091 20.5508 24.0991 20.6619C25.4324 21.9952 26.7458 23.3052 28.0391 24.5919C28.3091 24.9519 28.3391 25.0419 27.9891 25.4019Z" fill="#817757"/>
</svg>
