<svg width="109" height="37" viewBox="0 0 109 37" fill="none" xmlns="http://www.w3.org/2000/svg">
<path d="M22.6978 30.9725C23.336 29.6937 23.6585 28.2905 23.6401 26.8723C23.6726 25.5558 23.4481 24.2451 22.9783 23.0081C22.5583 21.9677 21.9581 21.0031 21.2033 20.1553C20.4354 19.3136 19.5505 18.5777 18.5737 17.9683C17.5255 17.3127 16.443 16.7094 15.3305 16.1605C14.2232 15.6295 13.0413 15.1253 11.7849 14.6477C10.5751 14.1933 9.40297 13.651 8.27882 13.0253C7.25266 12.4624 6.34934 11.714 5.61854 10.8214C4.8923 9.87931 4.52135 8.7275 4.56672 7.55563C4.56477 6.68354 4.73275 5.81882 5.06196 5.00621C5.37265 4.22103 5.8452 3.50436 6.45126 2.89924C7.06039 2.30069 7.78547 1.82256 8.58561 1.49179C9.43211 1.13442 10.3477 0.953466 11.2722 0.960828C12.4321 0.948989 13.5794 1.19412 14.6249 1.6772C15.6297 2.14353 16.5326 2.79 17.2852 3.5819C18.044 4.37668 18.6708 5.27924 19.1434 6.25774C19.6091 7.20923 19.9054 8.22913 20.02 9.27492H20.6861C20.6823 8.47389 20.6355 7.67359 20.5459 6.87719C20.46 6.1158 20.4146 5.35067 20.41 4.58481C20.41 3.9443 20.4188 3.29535 20.4363 2.63798C20.4363 1.9806 20.4626 1.37379 20.4626 0.745914H19.9104L18.7446 2.77281C17.6452 1.90935 16.4119 1.21689 15.0895 0.720631C13.7978 0.240832 12.4246 -0.00352328 11.0399 5.20685e-05C9.6868 -0.00417755 8.3462 0.249317 7.09552 0.745914C5.87071 1.22451 4.74542 1.91108 3.77346 2.77281C2.81502 3.61658 2.03392 4.6294 1.47257 5.75629C0.895462 6.88375 0.595566 8.12366 0.596035 9.38027C0.560943 10.7463 0.843961 12.1025 1.42436 13.3498C1.96736 14.4501 2.70933 15.4488 3.61569 16.2995C4.53581 17.1683 5.56663 17.9216 6.68355 18.5414C7.82597 19.1791 8.99467 19.7648 10.1897 20.2986C11.1831 20.7621 12.2174 21.2509 13.2926 21.765C14.3222 22.2542 15.2973 22.8429 16.2027 23.5222C17.0456 24.1531 17.7678 24.9203 18.337 25.7893C18.8989 26.6694 19.1878 27.6855 19.1697 28.718C19.1837 29.7344 18.9652 30.7414 18.5299 31.6678C18.1165 32.5474 17.5198 33.3363 16.7768 33.9854C16.0014 34.653 15.0977 35.1684 14.1165 35.5024C11.7022 36.3106 9.0575 36.1975 6.72737 35.1864C5.54081 34.6427 4.47629 33.8811 3.59376 32.9446C2.71153 31.9991 2.01642 30.9066 1.54268 29.7209C1.03549 28.4868 0.739479 27.1818 0.666146 25.8567H0C0 26.9945 2.14206e-06 27.9974 0.0569767 28.8697C0.113951 29.742 0.113927 30.5553 0.113927 31.2927C0.113927 32.0302 0.0920379 32.6791 0.0569767 33.3196C0.0219154 33.9601 0 34.8282 0 35.9323H0.591648L1.86699 33.8506C3.23785 34.74 4.69538 35.4993 6.21899 36.1177C7.79536 36.7255 9.48196 37.0249 11.1801 36.9984C12.8741 37.0163 14.5594 36.7642 16.1676 36.2525C17.6048 35.7988 18.9422 35.093 20.112 34.1708C21.2104 33.2986 22.0987 32.2073 22.7153 30.9725M40.5352 35.4224C38.9604 35.4055 36.9545 35.3788 34.5178 35.3423L54.7525 0.703785C54.1682 0.703785 53.6598 0.712211 53.2274 0.729067C52.7891 0.729067 52.3947 0.75435 52.009 0.75435H49.2391C47.1325 0.75435 45.1735 0.719234 43.362 0.649001C41.5505 0.578769 39.5915 0.543653 37.4849 0.543653C36.4505 0.543653 35.2409 0.560507 33.856 0.594218C32.4711 0.632144 31.2571 0.665859 30.2228 0.703785L29.7845 7.68206H30.3411C30.4529 6.16844 30.989 4.71221 31.8926 3.46812C32.34 2.91027 32.9096 2.45386 33.561 2.13126C34.2123 1.80866 34.9295 1.62774 35.6617 1.60134C36.176 1.53504 36.6942 1.49986 37.2131 1.49599H39.2072C40.132 1.49599 41.2408 1.51706 42.5337 1.55078C43.8266 1.58449 45.641 1.63927 47.9682 1.71091L27.6809 36.3536H29.0789C29.6311 36.3536 30.2228 36.3537 30.832 36.3242C31.4412 36.2947 32.0766 36.2989 32.6858 36.2989H34.268C36.1146 36.2989 38.3059 36.3171 40.842 36.3536C43.3781 36.3902 45.8996 36.407 48.4064 36.4042H51.4743C52.4677 36.4042 53.4655 36.3874 54.4677 36.3536L54.9366 28.6253H54.3844C54.0864 31.023 53.3325 32.7592 52.1098 33.8337C50.887 34.9083 49.0419 35.4477 46.6227 35.4477H44.1859C43.3094 35.4477 42.0808 35.4378 40.5001 35.4182M101.976 9.81431C101.976 12.9916 101.255 15.2868 99.815 16.6999C98.3746 18.1129 96.287 18.8153 93.5522 18.8068C93.1139 18.8068 92.6362 18.8068 92.1366 18.7521C91.637 18.6973 91.1286 18.6636 90.6114 18.5961V3.42598C90.5911 3.08144 90.6849 2.73957 90.8794 2.44955C91.0739 2.15954 91.3591 1.93632 91.6939 1.81204C92.0323 1.68346 92.3854 1.59435 92.7458 1.54657C93.1219 1.49552 93.5011 1.46877 93.8809 1.46651C96.4316 1.46651 98.4184 2.19973 99.8413 3.66618C101.264 5.13263 101.976 7.17217 101.976 9.7848M108.238 9.46034C108.238 6.58082 107.093 4.3699 104.802 2.8276C102.512 1.2853 99.1313 0.512744 94.661 0.509934C93.4923 0.509934 92.2812 0.553477 91.0278 0.640565C89.7919 0.729058 88.7269 0.775414 87.8416 0.775414C87.4004 0.775414 86.9753 0.766987 86.5662 0.750132C86.1586 0.729062 85.6897 0.720631 85.1506 0.720631C84.6116 0.720631 83.9892 0.720632 83.2661 0.695348C82.543 0.670065 81.6314 0.670066 80.5226 0.670066V1.20103C81.0894 1.19967 81.6554 1.24479 82.2143 1.33587C82.7164 1.41233 83.1976 1.58423 83.6298 1.84154C84.0421 2.09892 84.3763 2.45655 84.5984 2.87816C84.8633 3.43808 84.9865 4.05038 84.9578 4.66488V32.3251C84.9868 32.9397 84.8636 33.552 84.5984 34.1118C84.3776 34.5355 84.0433 34.8948 83.6298 35.1527C83.1976 35.41 82.7164 35.5819 82.2143 35.6583C81.6552 35.748 81.0893 35.7917 80.5226 35.789V36.3242C81.6314 36.3242 82.521 36.3242 83.1828 36.2947C83.8446 36.2652 84.4231 36.2525 84.9052 36.2188C85.3873 36.1851 85.8256 36.1556 86.22 36.1387C86.6144 36.1219 87.1447 36.1092 87.7715 36.1092C88.3982 36.1092 88.8715 36.1092 89.2966 36.1387C89.7218 36.1682 90.1732 36.1809 90.6553 36.2188C91.1374 36.2567 91.7071 36.2778 92.3733 36.2947C93.0394 36.3115 93.9247 36.3242 95.0335 36.3242V35.8185C94.4668 35.8212 93.9009 35.7775 93.3418 35.6878C92.8411 35.6114 92.3613 35.4395 91.9306 35.1822C91.5149 34.9256 91.1788 34.5661 90.9577 34.1413C90.6945 33.5809 90.5714 32.969 90.5983 32.3546V19.5653C91.2644 19.637 91.9394 19.6918 92.6231 19.7255C93.3068 19.7592 93.9992 19.776 94.7004 19.776C98.9516 19.776 102.268 18.9599 104.649 17.3277C107.03 15.6955 108.222 13.0829 108.225 9.48982" fill="#EAE4D1"/>
<path d="M73.2563 30.5514H61.2785V31.1455H73.2563V30.5514ZM80.3563 13.4765C80.3821 13.1485 80.3287 12.8192 80.2002 12.5144C80.0717 12.2096 79.8716 11.9374 79.6156 11.7193C79.1112 11.3288 78.4792 11.1228 77.8318 11.1378C77.6174 11.1388 77.4038 11.1657 77.1963 11.2179C76.9749 11.2658 76.7632 11.3484 76.5696 11.4623C76.3822 11.5684 76.2207 11.7121 76.0963 11.8837C75.9697 12.056 75.9037 12.2627 75.9078 12.4736C75.9061 12.5715 75.9259 12.6687 75.9659 12.7587C76.006 12.8488 76.0653 12.9297 76.1401 12.9961C76.217 13.0667 76.3078 13.1217 76.4072 13.1579C76.5065 13.1941 76.6125 13.2108 76.7186 13.2068C76.814 13.2144 76.91 13.2022 76.9999 13.1709C77.0899 13.1396 77.1719 13.0901 77.2402 13.0256C77.3572 12.9034 77.4481 12.7602 77.5075 12.6042C77.5633 12.4581 77.6101 12.309 77.6478 12.1576C77.6588 12.0678 77.6902 11.9815 77.7398 11.9047C77.822 11.8332 77.9214 11.7825 78.0291 11.7572C78.1236 11.7341 78.2208 11.7228 78.3183 11.7235C78.543 11.7167 78.7645 11.7755 78.9538 11.8921C79.1258 12.0053 79.2744 12.1481 79.3921 12.3135C79.5178 12.4847 79.6113 12.6758 79.6682 12.8781C79.8023 13.3235 79.7982 13.7968 79.6565 14.2399C79.5148 14.6831 79.2417 15.0768 78.8705 15.3728C78.1867 15.8207 77.3698 16.0426 76.5433 16.0049C75.8111 16.0037 75.0795 15.9629 74.352 15.8827C73.6335 15.8006 72.9105 15.7598 72.187 15.7605C71.6289 15.7553 71.0738 15.8379 70.5435 16.0049C70.0616 16.1587 69.6152 16.4005 69.2287 16.717C68.8559 17.0306 68.5571 17.4171 68.3521 17.8506C68.1298 18.3184 68.019 18.828 68.0278 19.3423C68.0123 19.5685 68.0315 19.7957 68.0848 20.0165C68.1532 20.2392 68.2664 20.4468 68.4179 20.6276C68.5756 20.8164 68.7727 20.9714 68.9964 21.0827C69.2546 21.2067 69.5406 21.2675 69.8291 21.2597C70.1979 21.2707 70.5591 21.1574 70.8503 20.9394C70.9841 20.8407 71.0917 20.7128 71.1641 20.5662C71.2365 20.4197 71.2716 20.2588 71.2666 20.0966C71.2783 19.9745 71.258 19.8514 71.2075 19.7388C71.1569 19.6261 71.0778 19.5275 70.9774 19.4519C70.7855 19.317 70.5532 19.246 70.3156 19.2496C70.1331 19.249 69.9525 19.2848 69.7853 19.355C69.6339 19.4161 69.4874 19.4879 69.347 19.5699C69.2365 19.6323 69.131 19.7028 69.0315 19.7806C68.9569 19.8438 68.9087 19.8648 68.8956 19.8522C68.8223 19.7784 68.763 19.6928 68.7203 19.5994C68.6614 19.4575 68.6345 19.3053 68.6414 19.1527C68.6276 18.872 68.7212 18.5962 68.9044 18.3773C69.0924 18.1735 69.3262 18.0136 69.5881 17.9096C69.88 17.7882 70.1884 17.7073 70.504 17.6694C70.8219 17.6248 71.1426 17.6023 71.4638 17.602C71.8039 17.6007 72.1427 17.6418 72.4719 17.7242C72.7723 17.7976 73.0551 17.9264 73.3045 18.1034C73.5485 18.2769 73.7442 18.5056 73.8743 18.7692C74.0192 19.0789 74.0896 19.4159 74.0803 19.7553C74.0785 20.3098 73.9435 20.8563 73.6859 21.3524C73.4005 21.8963 72.9898 22.3705 72.485 22.7387C71.8728 23.1775 71.1863 23.5111 70.4558 23.7248C69.5297 23.9936 68.5656 24.1216 67.5983 24.1041C66.6835 24.1202 65.7711 24.008 64.8899 23.7712C64.2076 23.585 63.5702 23.2714 63.0141 22.8483C62.5424 22.4843 62.1694 22.0159 61.9272 21.483C61.6922 20.9573 61.5729 20.3906 61.5766 19.8185C61.5555 19.0598 61.7446 18.3094 62.1244 17.6441C62.4924 17.0309 63.0415 16.5366 63.7022 16.224C63.7489 16.2942 63.819 16.3869 63.9125 16.5021C64.0139 16.6196 64.1303 16.7243 64.2588 16.814C64.4073 16.9157 64.5676 17.0005 64.7365 17.0668C64.9303 17.146 65.1394 17.1848 65.35 17.1806C65.6805 17.1932 66.0045 17.0899 66.2616 16.8898C66.3761 16.8024 66.4681 16.6907 66.5304 16.5636C66.5927 16.4364 66.6237 16.2971 66.621 16.1566C66.6126 15.8982 66.5048 15.652 66.3186 15.4655C66.1805 15.3415 66.0163 15.2476 65.837 15.1901C65.6578 15.1327 65.4677 15.1131 65.2799 15.1326C65.1151 15.131 64.9511 15.1538 64.7934 15.2C64.6759 15.2301 64.5603 15.2667 64.4472 15.3096C64.3303 15.1122 64.2405 14.9012 64.1799 14.6817C64.1207 14.4616 64.0927 14.2348 64.0966 14.0075C64.0969 13.6432 64.1807 13.2835 64.342 12.954C64.4971 12.6254 64.7175 12.3291 64.9907 12.0817C65.2628 11.8394 65.5754 11.6428 65.9154 11.5002C66.246 11.3567 66.6045 11.282 66.9672 11.2811C67.1747 11.2735 67.382 11.2992 67.5808 11.3569C67.7052 11.394 67.8202 11.4557 67.9183 11.5381C67.95 11.5878 67.9736 11.6418 67.9884 11.6982C68.0272 11.8089 68.0818 11.9138 68.1506 12.0101C68.2356 12.1341 68.3459 12.2402 68.4749 12.3219C68.6323 12.4201 68.8177 12.4687 69.0052 12.461C69.1953 12.4588 69.3774 12.3864 69.5136 12.2587C69.5932 12.1887 69.6555 12.1023 69.6957 12.0061C69.7359 11.9098 69.753 11.806 69.7458 11.7025C69.7498 11.494 69.6904 11.289 69.5749 11.1125C69.4558 10.9351 69.2913 10.79 69.0972 10.6911C68.887 10.5812 68.661 10.5017 68.4267 10.4551C68.176 10.404 67.9203 10.3786 67.6641 10.3793C67.0983 10.3804 66.5388 10.4938 66.0206 10.7122C65.4871 10.9286 64.9975 11.2339 64.5743 11.614C64.1504 11.9893 63.8039 12.4382 63.5531 12.9371C63.3007 13.436 63.1703 13.9837 63.1718 14.5384C63.1654 14.936 63.2445 15.3305 63.4041 15.6973C62.8556 15.9901 62.3426 16.3406 61.8746 16.7423C61.4166 17.1377 61.0117 17.5864 60.6694 18.0781C60.3323 18.5688 60.0641 19.1002 59.8717 19.6584C59.6799 20.2186 59.5822 20.8047 59.5824 21.3945C59.5793 22.084 59.7381 22.7654 60.047 23.3877C60.3605 24.0371 60.8183 24.6124 61.3881 25.0733C62.0228 25.5823 62.7492 25.9751 63.5312 26.2321C64.4439 26.5293 65.4034 26.6718 66.3668 26.6535C67.3161 26.6661 68.2627 26.5541 69.1805 26.3206C69.9411 26.1249 70.6698 25.8285 71.3455 25.4399C71.9342 25.0984 72.4648 24.6721 72.9189 24.1757C73.6973 23.3396 74.2536 22.3348 74.5405 21.247C74.6565 20.8146 74.7184 20.3704 74.7245 19.9238C74.7284 19.5905 74.6902 19.258 74.6106 18.9336C74.5121 18.5991 74.3645 18.2798 74.1723 17.9854C74.3726 18.015 74.5746 18.0333 74.7771 18.0402C74.9612 18.0402 75.1628 18.0402 75.3776 18.0402C76.1317 18.0606 76.8809 17.9166 77.5689 17.6188C78.1559 17.357 78.6831 16.9861 79.1203 16.5274C79.911 15.683 80.3564 14.5915 80.3738 13.4555" fill="#EAE4D1"/>
</svg>
