<svg width="191" height="87" viewBox="0 0 191 87" fill="none" xmlns="http://www.w3.org/2000/svg">
<g clip-path="url(#clip0_188_6648)">
<path fill-rule="evenodd" clip-rule="evenodd" d="M0.967407 25.1604V48.77L3.03287 49.1567C6.02609 49.7177 13.1982 48.9961 18.0931 47.6423C30.0562 44.3327 40.3419 35.4958 45.4651 24.125C47.8883 18.7457 48.8953 13.8227 48.8953 7.35159V1.55029H24.9314H0.967407V25.1604ZM69.8832 4.63035C70.2461 8.99983 69.0262 18.5248 67.3744 24.2133C64.254 34.9627 59.3157 43.1521 50.9705 51.4183C38.9805 63.2949 24.916 69.2898 8.53203 69.5091L0.977107 69.6099L0.971972 78.2953L0.967407 86.9808H36.7656H72.5637L60.6183 75.0467L48.6734 63.1132L55.9773 55.8909L63.2811 48.6686L75.2026 60.5577L87.1236 72.4473V36.9988V1.55029H78.3756H69.627L69.8832 4.63035ZM99.6761 10.9476V20.345H101.673C103.659 20.345 103.67 20.3313 103.67 17.7821V15.2192H105.925C107.955 15.2192 108.356 15.4743 109.946 17.7821C111.537 20.0893 111.938 20.345 113.967 20.345H116.221L114.169 17.4933L112.116 14.6422L113.884 12.9934C115.394 11.5861 115.652 10.9385 115.652 8.56755C115.652 3.2851 112.976 1.55029 104.83 1.55029H99.6761V10.9476ZM125.043 3.30447C124.524 4.30514 123.252 7.07537 122.216 9.45945C121.179 11.8441 119.667 15.2693 118.855 17.0702L117.378 20.345H119.539C121.49 20.345 121.769 20.1519 122.421 18.3516L123.143 16.3582H127.912H132.681L133.34 18.3516C133.942 20.1724 134.189 20.345 136.205 20.345H138.412L137.265 17.6397C136.635 16.1515 134.772 11.987 133.128 8.38473C130.165 1.89714 130.117 1.83335 128.061 1.66021C126.226 1.50587 125.876 1.69666 125.043 3.30447ZM146.344 4.25559C145.685 5.74379 143.794 9.97203 142.14 13.6529L139.133 20.345H141.327C143.329 20.345 143.579 20.1701 144.181 18.3516L144.84 16.3582H149.608H154.377L155.099 18.3516C155.756 20.1639 156.023 20.345 158.036 20.345C159.255 20.345 160.166 20.1297 160.061 19.866C159.957 19.6023 158.074 15.3792 155.877 10.4801L151.883 1.57307L149.712 1.56168C147.666 1.55086 147.471 1.70692 146.344 4.25559ZM103.67 8.38473V11.8019H106.396C109.777 11.8019 111.658 10.6002 111.658 8.44054C111.658 6.06501 110.066 4.96751 106.621 4.96751H103.67V8.38473ZM148.346 8.43029C147.685 10.1281 146.963 11.966 146.742 12.5139C146.389 13.3921 146.72 13.5106 149.54 13.5106C153.261 13.5106 153.28 13.4513 151.1 8.71506L149.549 5.34341L148.346 8.43029ZM126.2 9.30966C125.42 11.0718 124.781 12.7377 124.781 13.0116C124.781 13.2862 126.211 13.5106 127.958 13.5106C130.92 13.5106 131.109 13.4303 130.756 12.3208C130.129 10.3468 128.17 6.10658 127.886 6.10658C127.739 6.10658 126.981 7.54808 126.2 9.30966ZM140.906 34.678C136.197 35.7282 132.706 40.9975 133.593 45.7161C134.074 48.2773 136.116 51.1091 138.477 52.4902C140.951 53.9368 146.34 54.0205 149.458 52.6605L151.598 51.7276V47.7118V43.696H149.601H147.604V46.8028C147.604 49.8869 147.59 49.9119 145.657 50.2741C142.098 50.9405 139.039 49.1197 137.893 45.6546C137.108 43.2819 138.27 40.2429 140.523 38.7689C142.434 37.5199 145.925 37.5182 147.833 38.7661C149.125 39.6107 149.322 39.6022 150.504 38.647C152.01 37.4294 151.712 36.7363 149.182 35.5744C146.539 34.3601 143.708 34.0537 140.906 34.678ZM99.6761 43.9808V53.3781H106.523H113.37L113.371 51.8119L113.372 50.2457H108.664H103.955L103.797 42.4145L103.638 34.5834H101.657H99.6761V43.9808ZM116.223 43.9808V53.3781H123.64H131.057V51.9543C131.057 50.5356 131.039 50.5304 125.637 50.5304H120.217V47.9675V45.4046H124.781C129.27 45.4046 129.346 45.3807 129.346 43.9808C129.346 42.5808 129.27 42.5569 124.781 42.5569H120.217V40.2788V38.0006H125.352H130.487V36.292V34.5834H123.355H116.223V43.9808ZM161.344 35.8649C161.071 36.5694 159.28 40.5966 157.364 44.814C155.448 49.0308 153.88 52.6833 153.88 52.9299C153.88 53.1765 154.762 53.3781 155.84 53.3781C157.563 53.3781 157.888 53.1361 158.522 51.3847L159.245 49.3914H163.943H168.642L169.363 51.3847C170.02 53.197 170.287 53.3781 172.301 53.3781C173.519 53.3781 174.431 53.1611 174.326 52.8957C174.221 52.6303 172.354 48.4015 170.176 43.4984L166.217 34.5834H164.029C162.287 34.5834 161.739 34.8448 161.344 35.8649ZM177.274 43.9808V53.3781H184.121H190.967V51.9543C190.967 50.5469 190.91 50.5304 186.118 50.5304H181.268V42.5569V34.5834H179.271H177.274V43.9808ZM162.228 42.5945C161.403 44.4945 160.727 46.1604 160.727 46.2965C160.727 46.4326 162.139 46.5437 163.865 46.5437C165.591 46.5437 167.003 46.3614 167.003 46.1387C167.003 45.3146 164.429 39.1397 164.086 39.1397C163.889 39.1397 163.054 40.6945 162.228 42.5945ZM103.927 68.4179C101.867 69.3137 99.2493 72.2577 98.7507 74.2408C98.1344 76.6921 98.8619 81.053 100.201 82.9296C100.903 83.9144 102.292 85.156 103.287 85.6885C105.748 87.0064 111.886 86.9933 114.368 85.6657C116.167 84.7032 116.223 84.5631 116.223 80.9858V77.2986H114.511C112.865 77.2986 112.799 77.396 112.799 79.8416C112.799 82.6272 111.869 83.5635 109.1 83.5635C102.89 83.5635 100.193 75.9466 105.021 72.043C106.595 70.7706 110.96 70.7228 112.728 71.9592C113.968 72.8266 114.124 72.8124 115.206 71.732C115.865 71.0742 116.179 70.2848 115.937 69.8941C114.643 67.8039 107.39 66.912 103.927 68.4179ZM120.787 74.1844C120.787 83.8363 122.218 86.2039 128.398 86.7774C131.822 87.0952 134.556 85.9397 136.437 83.3796C137.45 82.0019 137.648 80.7609 137.82 74.6942L138.022 67.6165H135.966H133.91V73.6251C133.91 81.5764 132.926 83.5635 128.988 83.5635C128.215 83.5635 126.952 82.9342 126.182 82.1653C124.857 80.8429 124.781 80.414 124.781 74.1918V67.6165H122.784H120.787V74.1844ZM142.469 77.0139V86.4112H144.466H146.463V77.0139V67.6165H144.466H142.469V77.0139ZM151.598 76.9507V86.4112L157.446 86.3987C164.386 86.3839 167.287 85.3673 169.197 82.2821C170.918 79.5033 170.892 74.7386 169.141 72.1455C166.889 68.8103 164.653 67.9389 157.732 67.7014L151.598 67.4907V76.9507ZM174.421 77.0139V86.4112H181.838H189.256V84.9874C189.256 83.5687 189.237 83.5635 183.835 83.5635H178.415V81.0006V78.4377H182.979C187.468 78.4377 187.544 78.4138 187.544 77.0139C187.544 75.614 187.468 75.59 182.979 75.59H178.415V73.3119V71.0337H183.55H188.685V69.3251V67.6165H181.553H174.421V77.0139ZM155.592 77.2986V83.5635L157.732 83.5601C163.049 83.5527 166.433 81.2091 166.433 77.5333C166.433 73.1034 163.989 71.0337 158.759 71.0337H155.592V77.2986Z" fill="#EAE4D1"/>
</g>
<defs>
<clipPath id="clip0_188_6648">
<rect width="190" height="86" fill="white" transform="translate(0.967407 0.980957)"/>
</clipPath>
</defs>
</svg>
