<svg width="128" height="132" viewBox="0 0 128 132" fill="none" xmlns="http://www.w3.org/2000/svg">
<path fill-rule="evenodd" clip-rule="evenodd" d="M61.4319 0.479538C61.2823 0.721396 61.4688 0.919279 61.8456 0.919279C62.7163 0.919279 62.7295 0.755696 61.4314 6.11438C60.1364 11.4594 60.0981 12.0245 61.0422 11.835C61.4336 11.7567 62.1275 10.6851 62.5893 9.44499C63.4261 7.19967 64.919 5.35935 65.463 5.90331C65.6213 6.06162 65.4951 7.25727 65.1828 8.56067C64.5712 11.1094 64.7686 11.9128 66.0069 11.9128C66.9075 11.9128 68.2478 10.5923 68.2478 9.70531C68.2478 9.31922 68.0262 9.40937 67.6243 9.95904C66.6802 11.2501 66.5047 10.6169 67.1287 8.17501C67.4378 6.96572 67.597 5.72917 67.4823 5.42663C67.1841 4.63861 65.1609 4.74855 64.215 5.60472C63.2014 6.52203 63.1763 6.00973 64.0703 2.67824C64.4274 1.34803 64.722 0.210416 64.7246 0.149732C64.7409 -0.194586 61.6574 0.114113 61.4319 0.479538ZM50.9515 1.65233C50.7901 1.81327 50.6687 2.45662 50.6811 3.08149L50.7044 4.21734L51.3943 3.22792C51.7962 2.6523 52.542 2.2385 53.1779 2.2385C54.0904 2.2385 54.2315 2.40209 54.0292 3.22792C53.896 3.77232 53.5499 5.60253 53.2601 7.29553C52.9154 9.30823 52.4334 10.6402 51.867 11.1433C51.0306 11.886 51.0979 11.9119 53.7975 11.8851C55.8172 11.8649 56.3335 11.7519 55.6558 11.4779C54.7966 11.1314 54.75 10.9194 55.1057 8.97754C56.2345 2.81457 56.4197 2.2385 57.2715 2.2385C57.7301 2.2385 58.4007 2.78246 58.7617 3.44779L59.4178 4.65708L59.4354 3.00805L59.453 1.35902H55.3489C53.0913 1.35902 51.1124 1.49094 50.9515 1.65233ZM71.104 5.93849C69.7988 7.24364 69.3107 9.02547 69.8419 10.5452C70.4382 12.2523 73.0788 12.3987 74.6645 10.813C75.2982 10.1794 75.7019 9.54569 75.5612 9.40541C75.4205 9.26469 74.9543 9.57207 74.5251 10.0879C73.4504 11.3794 71.5903 11.5417 71.4193 10.3588C71.3216 9.68333 71.6681 9.32758 72.8335 8.90586C74.5981 8.2678 76.23 6.44287 75.8716 5.50842C75.4556 4.42446 72.3366 4.70589 71.104 5.93849ZM72.4505 6.29424C71.7077 7.35402 71.5485 8.39488 72.129 8.39488C72.6664 8.39488 74.4042 6.44199 74.4042 5.83823C74.4042 4.96798 73.1787 5.25425 72.4505 6.29424ZM0.967407 8.39488C0.967407 8.68248 8.80932 8.83463 23.6141 8.83463C38.4189 8.83463 46.2608 8.68248 46.2608 8.39488C46.2608 8.10729 38.4189 7.95514 23.6141 7.95514C8.80932 7.95514 0.967407 8.10729 0.967407 8.39488ZM79.6811 8.39488C79.6811 8.68248 87.8898 8.83463 103.427 8.83463C118.965 8.83463 127.173 8.68248 127.173 8.39488C127.173 8.10729 118.965 7.95514 103.427 7.95514C87.8898 7.95514 79.6811 8.10729 79.6811 8.39488ZM61.1258 15.8885C55.1902 19.023 52.4048 30.8806 53.0214 50.3902C53.5688 67.7094 55.615 74.5509 60.9921 77.0403C64.6107 78.7157 68.4044 77.725 70.396 74.5848C71.0283 73.5874 71.7183 72.7167 71.9289 72.649C72.1391 72.5817 73.0533 73.6437 73.9596 75.0087C75.2111 76.8934 75.6746 77.3164 75.8857 76.7668C76.0383 76.3688 76.1632 69.9393 76.1632 62.4796C76.1632 49.9311 76.2208 48.9003 76.9327 48.7143C77.3562 48.604 74.833 48.5028 71.326 48.4901C67.0821 48.4747 65.2827 48.6009 65.9454 48.8669L66.9414 49.2671L66.8248 63.0209L66.7087 76.7747L65.251 76.9145C62.3733 77.1907 62.5312 78.9303 62.5312 46.9162C62.5312 15.1629 62.4749 15.8705 64.9946 15.8705C67.1942 15.8705 69.5803 19.6567 71.1158 25.5822C71.6897 27.7972 73.5146 38.8545 73.5225 40.1662C73.5239 40.3474 73.7226 40.496 73.9645 40.496C74.4609 40.496 74.5124 18.5503 74.0199 16.7895C73.7314 15.7579 73.6751 15.7847 71.9087 17.7913L70.0939 19.8532L69.1396 18.3089C67.0768 14.9717 64.3953 14.1617 61.1258 15.8885ZM1.18728 15.8705C1.33679 16.1123 1.94363 16.3102 2.53553 16.3102H3.61201L3.499 46.3226L3.38598 76.3349L2.1767 76.4739C1.51181 76.5504 0.967407 76.798 0.967407 77.0236C0.967407 77.2676 5.67528 77.4343 12.5621 77.4343H24.1567L24.4764 69.2859C24.7974 61.1089 24.4527 51.7666 23.8436 52.143C23.6647 52.2538 23.3907 53.5867 23.2355 55.1051C22.8415 58.9493 21.0306 66.1963 19.4216 70.3685C17.7211 74.7778 16.1592 76.5548 13.9833 76.5548H12.4007V46.4325V16.3102H14.3795C15.4679 16.3102 16.3584 16.1123 16.3584 15.8705C16.3584 15.5939 13.4912 15.4307 8.63694 15.4307C3.60146 15.4307 1.01006 15.5838 1.18728 15.8705ZM26.9121 15.863C26.9121 16.1093 27.4082 16.3102 28.0146 16.3102H29.117L29.004 46.3226L28.891 76.3349L27.6817 76.4739C27.0164 76.5504 26.4724 76.798 26.4724 77.0236C26.4724 77.2676 31.2863 77.4343 38.3454 77.4343H50.2184V64.9017C50.2184 56.8399 50.0615 52.369 49.7787 52.369C49.5368 52.369 49.339 52.541 49.339 52.7512C49.339 53.989 47.8258 61.5645 46.8681 65.1215C44.949 72.2497 42.0582 76.5548 39.191 76.5548H37.9057V61.6036C37.9057 51.023 38.0473 46.6524 38.3894 46.6524C38.6554 46.6524 39.5182 47.2975 40.3067 48.0859C41.4715 49.2508 41.9174 50.2723 42.6813 53.5273C43.1989 55.7317 43.625 58.0052 43.6285 58.5799C43.6316 59.1547 43.7538 60.0698 43.8994 60.6142C44.694 63.5794 44.9415 60.1599 44.9415 46.2126C44.9415 37.7476 44.7714 30.8217 44.5629 30.8217C44.3549 30.8217 44.0673 31.8107 43.9244 33.0191C43.5476 36.1993 42.3176 40.9028 41.373 42.7756C40.4751 44.5561 38.8023 45.966 38.2474 45.411C38.0526 45.2162 37.9457 38.6385 38.0095 30.7936L38.1256 16.5301L39.6646 16.4105C41.884 16.2377 43.8114 17.5978 44.9385 20.132C46.3971 23.4112 47.9111 29.0179 48.7735 34.333C49.2053 36.9965 49.7105 39.1759 49.8957 39.1763C50.0812 39.1763 50.1802 33.8836 50.1155 27.4137L49.9986 15.6506L38.4554 15.5332C30.8505 15.4563 26.9121 15.5688 26.9121 15.863ZM89.1641 17.2996C88.9975 18.3273 87.0877 31.2395 84.9206 45.9928C82.7536 60.7461 80.8631 73.2128 80.7198 73.6965C80.3764 74.8574 78.7999 76.5548 78.0655 76.5548C77.7449 76.5548 77.4824 76.7527 77.4824 76.9945C77.4824 77.2553 79.0949 77.4343 81.4401 77.4343C83.6168 77.4343 85.3903 77.2857 85.3806 77.1045C85.3714 76.9233 84.7408 76.3789 83.9791 75.8952C83.2171 75.4115 82.4598 74.5061 82.2954 73.8829C82.0329 72.8874 82.8626 64.8713 83.2707 64.4637C83.356 64.3779 84.8991 64.2601 86.699 64.2016C89.9288 64.0969 89.9755 64.1114 90.293 65.2987C90.4702 65.9601 90.7542 68.7635 90.9244 71.5281L91.234 76.5548H90.0748C89.4372 76.5548 88.9157 76.7826 88.9157 77.0614C88.9157 77.4299 90.1927 77.4897 93.6016 77.2813C96.1785 77.1234 99.1964 76.9717 100.308 76.9435C101.419 76.9154 102.002 76.8059 101.603 76.6999C101.199 76.5931 100.766 75.8833 100.627 75.1019C100.222 72.8355 98.3257 54.8813 96.3908 34.9992C95.4023 24.8412 94.5096 16.283 94.4067 15.9804C94.2884 15.6317 93.3522 15.4307 91.8439 15.4307H89.468L89.1641 17.2996ZM103.647 15.8705C103.797 16.1123 104.402 16.3102 104.992 16.3102H106.066V46.4325V76.5548H104.966C104.362 76.5548 103.867 76.7558 103.867 77.0016C103.867 77.2962 107.84 77.4088 115.511 77.3314L127.156 77.2144L127.267 69.5189C127.424 58.6586 127.237 51.4895 126.797 51.4895C126.59 51.4895 126.305 52.7265 126.164 54.2379C125.625 60.0117 123.369 68.7555 121.415 72.6517C120.333 74.8086 118.171 76.5548 116.582 76.5548H115.294L115.407 46.3226L115.52 16.0904L117.059 15.8186C117.906 15.6691 115.173 15.5205 110.987 15.4888C106.01 15.451 103.469 15.5829 103.647 15.8705ZM87.5076 35.6589C87.3383 36.5054 86.37 42.9071 85.356 49.8854C83.8081 60.5359 83.6106 62.6352 84.1251 62.9611C84.8718 63.4338 89.6685 63.4932 89.9324 63.0328C90.0366 62.8516 89.6663 57.0633 89.1096 50.1703C88.5529 43.2774 88.034 36.8462 87.9566 35.8787L87.8155 34.1198L87.5076 35.6589ZM8.22622 80.9474C7.72052 81.7653 5.78038 101.332 6.16647 101.718C6.44527 101.997 7.61234 101.661 9.49971 100.761C12.6496 99.2578 17.2365 98.1219 20.2061 98.1096L22.075 98.1021V110.48V122.857L18.0074 122.598C15.7704 122.456 12.8514 122.008 11.5212 121.602L9.10262 120.864L11.3994 119.847C16.2264 117.71 17.2998 112.312 13.6016 108.772C9.03183 104.397 1.40715 107.372 1.40715 113.53C1.40715 116.076 2.65777 118.045 5.47871 119.941C12.6518 124.762 26.7934 125.031 33.6679 120.477C36.8129 118.394 38.8274 115.106 39.1093 111.598C39.8036 102.947 32.66 97.2227 21.1709 97.2227C16.2264 97.2227 13.2037 97.7657 9.80445 99.2644C8.49754 99.8409 7.36037 100.244 7.27726 100.161C7.08641 99.9706 7.92016 93.3155 8.18928 92.8798C8.29966 92.7017 10.034 92.7294 12.0441 92.9409C14.0541 93.1524 18.1288 93.225 21.0983 93.1018C27.5181 92.8358 30.1183 91.8859 33.2501 88.6635C35.1419 86.7172 37.8344 82.0538 37.3477 81.567C37.2179 81.4373 35.4678 81.5718 33.4581 81.8656C29.2388 82.4825 17.8372 82.1452 12.0524 81.2323C10.0467 80.9157 8.32516 80.7873 8.22622 80.9474ZM58.2442 81.6316C54.9281 82.5247 52.867 83.6839 50.0988 86.2137C42.7204 92.9572 40.9008 102.891 45.3743 112.007C47.4476 116.232 51.3015 120.143 55.3489 122.129C57.6993 123.282 58.3189 123.387 62.7511 123.387C67.2452 123.387 67.7914 123.291 70.4553 122.028C82.349 116.392 86.7196 100.844 79.5571 89.6477C75.1812 82.8071 66.2936 79.4641 58.2442 81.6316ZM103.259 81.4175C98.0109 82.7226 92.5814 87.3263 89.906 92.7395L88.2561 96.0776L88.2701 102.037C88.2829 107.201 88.4192 108.334 89.2939 110.531C92.7691 119.261 102.255 125.084 110.573 123.593C119.377 122.015 126.346 114.555 127.701 105.258C129.113 95.5732 124.831 86.8377 116.702 82.8202C113.689 81.3313 113.074 81.1897 109.193 81.0956C106.868 81.0393 104.198 81.184 103.259 81.4175ZM106.176 82.1496L104.746 82.3273V102.288V122.248L106.285 122.537C107.132 122.696 108.517 122.696 109.364 122.537L110.903 122.248V102.315V82.3814L109.529 82.1065C108.773 81.9553 108.031 81.8634 107.88 81.9021C107.728 81.9408 106.961 82.0525 106.176 82.1496ZM60.2045 82.5458C60.033 82.7173 59.8928 91.7294 59.8928 102.573V122.288H62.9753H66.0579L65.9436 102.39L65.8293 82.4913L63.1728 82.3629C61.7115 82.2921 60.376 82.3743 60.2045 82.5458ZM0.967407 131.522C0.967407 131.814 22.2949 131.962 64.0703 131.962C105.846 131.962 127.173 131.814 127.173 131.522C127.173 131.231 105.846 131.083 64.0703 131.083C22.2949 131.083 0.967407 131.231 0.967407 131.522Z" fill="#EAE4D1"/>
</svg>
