<svg width="214" height="29" viewBox="0 0 214 29" fill="none" xmlns="http://www.w3.org/2000/svg">
<path fill-rule="evenodd" clip-rule="evenodd" d="M0.988667 12.1844L1.01013 23.3879L4.62314 23.4101L8.23614 23.4323L8.24036 19.8677L8.2445 16.303L9.11306 15.3851L9.98162 14.4673L12.6486 18.9276L15.3157 23.3879L19.6451 23.41C23.4911 23.4296 23.969 23.4176 23.9252 23.3022C23.8981 23.2309 21.8973 20.0784 19.4789 16.2968C17.0605 12.5151 15.0818 9.38282 15.0818 9.33613C15.0818 9.28935 16.7239 7.53444 18.7307 5.43613C20.7377 3.33791 22.5139 1.47715 22.6778 1.30106L22.976 0.980957L18.712 0.985567L14.448 0.990091L11.3632 4.58236L8.2784 8.17455L8.25634 4.57775L8.23428 0.980957H4.60074H0.967285L0.988667 12.1844ZM29.8641 6.5406C25.9102 6.89134 23.0248 9.16609 22.0829 12.6752C21.9099 13.3199 21.8886 13.5862 21.8924 15.0653C21.8962 16.5808 21.9162 16.8033 22.1156 17.5509C23.0101 20.903 25.4912 23.0829 29.1435 23.7253C30.1038 23.8942 31.9933 23.8966 32.9389 23.7301C35.5143 23.2765 37.5752 21.9833 38.8577 20.0161C39.8162 18.5458 40.3006 15.9707 40.017 13.8532C39.6867 11.3866 38.411 9.29387 36.4577 8.01416C34.7416 6.8898 32.2371 6.33002 29.8641 6.5406ZM90.8915 6.61887C89.6831 6.72933 88.3384 7.09655 87.3841 7.57652C85.1229 8.71385 83.5614 10.7737 82.9711 13.3979C82.8022 14.1484 82.7803 16.1795 82.9332 16.9005C83.7126 20.5756 86.2692 23.0807 89.913 23.7399C90.9566 23.9286 93.17 23.9261 94.3988 23.7349C97.2347 23.2934 99.4313 21.8937 100.392 19.9161C100.605 19.4782 100.803 18.9567 100.832 18.7571L100.886 18.3943H97.8031H94.7203L94.5655 18.7411C94.0867 19.8133 92.3192 20.2255 90.9888 19.5749C90.151 19.1653 89.392 18.0474 89.3067 17.0974L89.2622 16.6018H95.3074H101.352L101.408 16.301C101.493 15.8458 101.302 14.038 101.073 13.1269C100.962 12.6826 100.684 11.9285 100.457 11.4514C99.1 8.59879 96.53 6.93197 93.0043 6.61751C91.9452 6.52302 91.9392 6.52302 90.8915 6.61887ZM112.054 6.6164C110.362 6.79676 108.782 7.69406 107.915 8.96652L107.583 9.45298L107.56 8.28987L107.536 7.12685H104.665H101.793L101.815 18.0315L101.836 28.9362L105.069 28.9586L108.301 28.981V25.482V21.9829L108.997 22.5505C110.167 23.5043 111.162 23.8539 112.712 23.8561C114.744 23.8589 116.394 23.1501 117.741 21.6959C118.68 20.6808 119.347 19.2653 119.683 17.5709C119.898 16.4887 119.895 13.8573 119.678 12.8459C119.445 11.7556 119.072 10.7975 118.557 9.96548C117.079 7.57652 114.673 6.33727 112.054 6.6164ZM128.331 6.62383C126.113 6.87683 124.101 7.76807 122.688 9.1235C121.633 10.1353 120.92 11.394 120.493 12.9991C120.298 13.7314 120.273 13.9862 120.275 15.1933C120.276 16.3887 120.304 16.6628 120.496 17.3907C121.019 19.3742 122.057 20.9878 123.531 22.1069C125.846 23.864 129.444 24.3813 132.972 23.4641C134.559 23.0515 136.032 22.1569 136.885 21.0875C137.68 20.0902 138.304 18.524 138.304 17.5247V17.1139H135.093C132.091 17.1139 131.881 17.1237 131.879 17.2633C131.875 17.4941 131.41 18.5445 131.17 18.8614C130.64 19.5632 129.429 19.7372 128.453 19.2518C127.729 18.8916 127.134 18.2271 126.904 17.5206C126.391 15.9459 126.485 14.0279 127.147 12.5409C127.601 11.5219 128.479 10.9355 129.557 10.9316C130.612 10.9278 131.213 11.443 131.565 12.6529L131.746 13.2727H135.025H138.304V13.0262C138.304 12.373 137.684 10.7277 137.133 9.91888C136.474 8.95107 135.046 7.83414 133.795 7.30824C132.27 6.66685 130.213 6.40915 128.331 6.62383ZM146.249 6.70167C143.14 6.94102 141.316 7.7084 140.338 9.18811C140.15 9.47168 139.954 9.86339 139.902 10.0584C139.822 10.3569 139.578 11.8083 139.573 12.0137C139.573 12.0489 140.94 12.0777 142.612 12.0777H145.652L145.835 11.6477C145.936 11.4113 146.114 11.1417 146.231 11.0487C146.575 10.7754 147.267 10.6189 148.165 10.6113C149.5 10.6001 150.052 10.9292 150.052 11.7363C150.052 12.2162 149.866 12.495 149.348 12.7932C148.893 13.0551 148.981 13.037 145.799 13.528C141.436 14.2011 140.412 14.6472 139.322 16.3504C138.636 17.423 138.458 18.7467 138.813 20.1519C139.057 21.1204 139.361 21.6927 139.949 22.289C141.429 23.7892 144.393 24.2735 147.153 23.4659C148.126 23.181 149.684 22.4243 150.124 22.0229C150.319 21.845 150.491 21.7144 150.506 21.7327C150.521 21.751 150.579 22.1117 150.636 22.5343C150.693 22.9568 150.767 23.3318 150.802 23.3675C150.837 23.4033 152.327 23.4225 154.114 23.4102L157.362 23.3879L157.389 23.1553C157.409 22.9779 157.345 22.8606 157.12 22.6608C156.957 22.5166 156.736 22.2179 156.628 21.997L156.433 21.5953L156.383 16.431C156.341 12.0379 156.313 11.1781 156.194 10.6727C155.765 8.85427 155.394 8.35893 153.9 7.61212C153.028 7.17585 152.261 6.94298 151.18 6.78584C150.294 6.65686 147.458 6.60846 146.249 6.70167ZM40.8795 15.2137L40.9011 23.3879L43.7112 23.4103L46.5213 23.4328V20.0035C46.5213 16.8355 46.5049 16.4441 46.3064 14.8667C46.1884 13.9275 46.103 13.1 46.1168 13.0277C46.1306 12.9554 46.8601 15.1992 47.738 18.014C48.616 20.8288 49.3682 23.199 49.4097 23.2812C49.4774 23.415 49.6425 23.4305 51.0006 23.4305H52.516L52.8573 22.3422C53.045 21.7437 53.7951 19.3439 54.5244 17.0093C55.2536 14.6748 55.8612 12.7759 55.8745 12.7893C55.888 12.8028 55.7851 13.722 55.6461 14.8318C55.3993 16.8019 55.3938 16.9274 55.4154 20.1188L55.4376 23.3879L58.2477 23.4103L61.0578 23.4328V15.2371V7.04149H57.4274H53.7969L53.5905 7.70303C51.5476 14.2506 51.0572 15.8076 51.0099 15.8958C50.9788 15.9535 50.3266 13.9945 49.5603 11.5424L48.167 7.08417L44.5125 7.06189L40.858 7.0397L40.8795 15.2137ZM62.1565 15.2371V23.4328L64.9666 23.4103L67.7767 23.3879L67.7989 20.1626C67.8203 17.0343 67.8135 16.8753 67.5698 14.874C67.4316 13.7391 67.3282 12.801 67.3399 12.7892C67.3517 12.7773 67.9272 14.581 68.6188 16.7973C69.3104 19.0137 70.0613 21.4129 70.2873 22.1288L70.6984 23.4305H72.2117C73.1088 23.4305 73.7459 23.3965 73.7762 23.3469C73.8044 23.3009 74.5654 20.9097 75.4673 18.0332C76.3692 15.1567 77.1086 12.8801 77.1103 12.974C77.112 13.0679 77.0187 13.9097 76.9032 14.8447C76.7106 16.4026 76.693 16.8328 76.693 19.9888V23.4328L79.5031 23.4103L82.3132 23.3879L82.3348 15.2147L82.3563 7.04149L78.7007 7.04277L75.045 7.04405L73.6518 11.5203C72.8855 13.9823 72.2333 15.9503 72.2024 15.8937C72.1716 15.8371 71.6078 14.0623 70.9498 11.9497C70.2917 9.83702 69.6763 7.86845 69.5821 7.57499L69.411 7.04149H65.7837H62.1565V15.2371ZM157.932 15.2574L157.954 23.3879L161.102 23.4102L164.25 23.4326V20.3586V17.2846H166.616H168.981L169.003 20.3362L169.025 23.3879L172.216 23.4102L175.406 23.4326V15.2797V7.12685H172.196H168.985L168.963 9.83702L168.941 12.5472L166.595 12.5699L164.25 12.5926V9.85972V7.12685H161.08H157.911L157.932 15.2574ZM175.744 9.51692V11.907H178.49H181.236L181.258 17.6474L181.28 23.3879L184.47 23.4102L187.661 23.4326V17.6698V11.907H190.45H193.239V9.51692V7.12685H184.491H175.744V9.51692ZM193.408 9.51692V11.907H195.267H197.126V17.6765V23.4461L202.683 23.4056C208.758 23.3614 208.925 23.349 210.308 22.839C212.029 22.2049 213.327 20.9642 213.785 19.5168C214.029 18.7437 214.028 17.6278 213.781 16.8403C213.386 15.5764 212.284 14.3563 210.94 13.6948C209.569 13.0196 208.453 12.8459 205.487 12.8459H203.296V9.9864V7.12685H198.352H193.408V9.51692ZM91.4604 10.6263C90.598 10.7803 90.0751 11.1768 89.6707 11.9832C89.4919 12.3398 89.2012 13.2008 89.2012 13.3736C89.2012 13.412 90.5478 13.4435 92.1938 13.4435H95.1864L95.0723 13.0065C94.7758 11.8715 94.0873 11.0307 93.2425 10.7721C92.6574 10.593 91.9641 10.5363 91.4604 10.6263ZM30.0306 11.1813C29.0154 11.5113 28.2408 12.9357 28.125 14.6854C28.0665 15.5691 28.1722 16.3356 28.4859 17.301C29.0204 18.9459 29.9532 19.6908 31.3215 19.5655C32.5537 19.4526 33.2796 18.4764 33.637 16.4514C33.9438 14.714 33.5774 12.8345 32.7456 11.8775C32.1482 11.1904 30.9486 10.8827 30.0306 11.1813ZM110.007 11.5245C109.28 11.8433 108.69 12.5968 108.385 13.5957C108.159 14.333 108.16 15.5445 108.386 16.4967C108.769 18.1132 109.377 18.7244 110.679 18.8029C111.811 18.8712 112.577 18.4547 112.97 17.5567C113.484 16.3829 113.677 14.8144 113.418 13.91C113.075 12.7084 112.306 11.6775 111.608 11.4816C111.169 11.3586 110.335 11.3808 110.007 11.5245ZM149.587 16.4473C149.354 16.5405 148.595 16.7481 147.899 16.9086C145.735 17.4081 145.195 17.7829 145.255 18.7413C145.312 19.6484 145.915 20.1065 147.133 20.1687C148.068 20.2165 148.606 20.0097 149.201 19.3738C149.86 18.6705 150.086 18.1094 150.122 17.0926C150.139 16.6348 150.12 16.2643 150.081 16.269C150.042 16.2739 149.819 16.3541 149.587 16.4473ZM203.296 18.0857V19.6588L204.162 19.6895C205.443 19.7349 206.586 19.6408 206.966 19.4588C207.358 19.2706 207.602 18.7941 207.604 18.2078C207.608 17.43 207.249 16.9266 206.552 16.7341C206.318 16.6695 205.49 16.5932 204.712 16.5647L203.296 16.5128V18.0857Z" fill="#EAE4D1"/>
</svg>
