<svg width="178" height="45" viewBox="0 0 178 45" fill="none" xmlns="http://www.w3.org/2000/svg">
<path fill-rule="evenodd" clip-rule="evenodd" d="M94.8823 2.41242C91.2523 3.15923 88.2829 4.03442 88.2829 4.3564C88.2829 4.67838 88.7181 4.94188 89.2501 4.94188C89.7815 4.94188 90.6952 5.41712 91.2807 5.99789C92.1952 6.9067 92.3441 9.619 92.3441 25.4041V43.7529L98.3309 44.5159C107.813 45.7231 113.908 43.9815 117.657 38.9918C122.582 32.4386 121.807 20.9596 116.118 16.2058C112.907 13.5224 108.828 13.0889 102.639 14.7734L101.089 15.1955L101.555 8.05211C101.81 4.12315 101.899 0.941664 101.75 0.981324C101.603 1.02166 98.5123 1.66561 94.8823 2.41242ZM0.967407 2.8722C0.967407 3.21233 1.89133 3.69227 3.02101 3.9383C7.05242 4.8182 7.3807 6.23048 7.38679 22.7133C7.3922 39.4254 7.03211 41.0897 3.16722 42.2197C1.95698 42.5732 0.967407 43.2542 0.967407 43.7321C0.967407 44.409 3.51512 44.6012 12.4741 44.6012C22.2507 44.6012 23.9808 44.45 23.9808 43.5929C23.9808 43.0223 23.3743 42.5847 22.5824 42.5847C18.5679 42.5847 17.2216 39.508 17.2162 30.3171L17.2122 24.4355H19.9643C23.5909 24.4355 25.2418 25.3954 26.4161 28.1863C28.0887 32.1623 28.7188 30.8603 28.7188 23.4272C28.7188 19.027 28.4562 16.3692 28.021 16.3692C27.6365 16.3692 27.1343 16.8982 26.9048 17.5455C25.8902 20.3989 23.8292 21.7467 20.4787 21.7467H17.2122V13.2751V4.80408L22.9283 5.04069C28.3818 5.26722 28.7547 5.38418 31.0378 7.58225C32.3543 8.84934 33.7703 10.9069 34.1852 12.1545C35.4719 16.0257 36.4872 14.3801 36.6984 8.08035L36.894 2.25311H18.9307C8.43999 2.25311 0.967407 2.51056 0.967407 2.8722ZM44.4363 13.7221C41.1887 14.358 38.4562 16.0761 35.9051 19.0868C30.8415 25.0633 32.1438 37.4538 38.3269 42.1376C41.5874 44.6073 46.6679 45.5759 51.3254 44.6154C59.0789 43.0169 63.3445 37.595 63.3973 29.2705C63.4487 21.0369 59.3382 15.219 52.4294 13.7476C48.5692 12.9255 48.5097 12.9255 44.4363 13.7221ZM70.5152 14.5831C63.7987 15.8926 62.5891 16.5648 65.5978 17.3149C67.8924 17.887 68.3154 19.8316 68.3154 29.813C68.3154 39.7944 67.8924 41.739 65.5978 42.3111C64.6725 42.5416 63.9158 43.1513 63.9158 43.6655C63.9158 44.4204 65.7481 44.6012 73.3919 44.6012C81.364 44.6012 82.868 44.4413 82.868 43.5929C82.868 42.9678 82.2304 42.5847 81.1914 42.5847C80.1856 42.5847 79.1344 41.9797 78.5638 41.0722C77.4429 39.2896 76.7146 29.5515 77.3482 24.8126C77.7536 21.7736 77.977 21.4449 79.9764 20.932C81.4763 20.5475 82.8876 20.6732 84.4803 21.334L86.7999 22.2965L88.2179 18.9074C90.0123 14.6194 89.996 13.9156 88.0934 13.4418C84.8837 12.6412 79.46 15.4872 78.3513 18.5531C77.9086 19.7772 77.738 19.4196 77.4592 16.681L77.1146 13.2959L70.5152 14.5831ZM163.753 13.6232C158.13 15.0201 155.119 18.1673 155.016 22.7557C154.922 26.9542 156.632 28.8867 163.026 31.806C168.612 34.3577 169.507 35.243 169.507 38.2215C169.507 40.0834 166.602 42.5847 164.439 42.5847C162.102 42.5847 158.499 39.7964 156.735 36.623C154.668 32.9058 153.812 33.7917 154.368 39.0711C154.792 43.1009 154.871 43.2367 157.248 44.0218C161.383 45.3884 169.429 45.1329 172.514 43.5372C176.505 41.4722 177.967 39.1363 177.967 34.8235C177.967 30.264 176.892 29.0971 169.323 25.4438L163.753 22.755V19.7389C163.753 17.1045 163.991 16.6105 165.634 15.828C168.358 14.5314 171.993 16.4384 173.966 20.1973C174.781 21.7487 175.633 22.8323 175.861 22.6064C176.089 22.3799 176.275 20.5744 176.275 18.5934C176.275 15.4738 176.072 14.9159 174.752 14.4258C172.351 13.5345 165.984 13.0694 163.753 13.6232ZM132.618 14.6215C122.66 18.9799 120.893 35.5918 129.711 41.9353C133.228 44.4655 138.493 45.5531 142.695 44.618C146.308 43.8141 151.231 40.845 151.231 39.4704C151.231 38.3243 151.142 38.327 148.77 39.5558C145.831 41.0783 141.023 40.8464 138.302 39.0503C135.715 37.3429 132.956 32.5024 132.956 29.6705V27.7964H142.518H152.08L151.757 24.4523C151.356 20.3048 148.806 16.3019 145.605 14.7935C142.745 13.4458 135.522 13.3503 132.618 14.6215ZM45.478 16.3517C40.8428 19.9728 41.2307 39.2203 46.0005 42.3245C50.5816 45.305 53.8373 40.3698 53.9686 30.2466C54.0633 22.9654 52.8795 18.178 50.5308 16.3436C48.4136 14.69 47.604 14.6914 45.478 16.3517ZM136.543 16.0351C135.119 17.0252 134.169 19.234 133.289 23.5952L132.848 25.7798H137.527C140.101 25.7798 142.358 25.6286 142.544 25.4444C143.262 24.7312 141.796 17.528 140.685 16.3093C139.274 14.7606 138.453 14.7061 136.543 16.0351ZM101.595 17.4897C101.019 18.0617 101.009 30.7245 101.58 37.4276C102.08 43.3046 103.256 44.4318 106.47 42.1168C109.538 39.9073 111.386 35.282 111.444 29.6678C111.505 23.7579 110.464 20.2349 108.11 18.3965C106.447 17.0971 102.538 16.5527 101.595 17.4897Z" fill="#EAE4D1"/>
</svg>
