<svg width="152" height="95" viewBox="0 0 152 95" fill="none" xmlns="http://www.w3.org/2000/svg">
<path fill-rule="evenodd" clip-rule="evenodd" d="M115.747 1.26775C115.443 1.36895 114.514 1.60051 113.683 1.78256C111.374 2.28857 108.466 5.15964 107.35 8.03621C106.531 10.1477 106.346 12.2389 106.346 19.4231C106.346 29.1314 106.792 31.249 109.474 34.2872C111.483 36.5632 114.164 37.4966 118.599 37.463C123.296 37.4278 126.263 35.7602 128.159 32.0905C129.465 29.5632 129.585 28.7074 129.758 20.708C129.979 10.47 129.268 7.05774 126.302 4.10802C123.969 1.78751 118.564 0.333276 115.747 1.26775ZM134.825 7.87286C134.825 13.8312 134.889 14.198 135.931 14.198C136.889 14.198 137.037 13.8312 137.037 11.4479C137.037 9.08124 137.188 8.69788 138.123 8.69788C139.447 8.69788 140.355 10.2489 140.355 12.5117C140.355 13.8312 140.595 14.198 141.461 14.198C142.373 14.198 142.567 13.8312 142.567 12.103C142.567 10.9507 142.222 9.5383 141.799 8.96464C141.142 8.06921 141.15 7.74141 141.86 6.66338C143.717 3.84346 141.536 1.54771 137.001 1.54771H134.825V7.87286ZM144.226 6.96259C144.226 13.0705 144.814 14.198 148.002 14.198C151.19 14.198 151.967 12.7427 151.967 6.77283C151.967 1.94647 151.884 1.54771 150.881 1.54771C149.887 1.54771 149.782 2.00092 149.637 6.91034C149.481 12.2218 149.466 12.273 148.096 12.273C146.727 12.273 146.712 12.2218 146.556 6.91034C146.411 2.00092 146.306 1.54771 145.312 1.54771C144.306 1.54771 144.226 1.94756 144.226 6.96259ZM1.55648 19.6981V37.2986H5.15086H8.74524V22.4482V7.59785H12.8926H17.0399V22.4482V37.2986H20.6343H24.2287V19.6981V2.09772H12.8926H1.55648V19.6981ZM28.6525 19.6981V37.2986H32.2469H35.8413V30.2276V23.1572L39.924 22.8497C47.6165 22.2711 50.7718 19.1294 50.7718 12.0486C50.7718 8.03676 49.0481 4.56123 46.343 3.11799C44.7354 2.26107 43.1688 2.09772 36.5414 2.09772H28.6525V19.6981ZM54.6698 19.2647C52.1565 28.7294 49.9799 36.671 49.8339 36.9125C49.6874 37.1534 51.2695 37.2771 53.3492 37.1875L57.1311 37.0236L57.9052 33.311L58.6794 29.5984H63.5523H68.4246L68.9532 31.6609C69.2441 32.7956 69.6467 34.5282 69.848 35.511L70.214 37.2986H73.7752C77.2662 37.2986 77.3292 37.2727 77.0002 35.967C76.815 35.2349 74.7319 27.3763 72.3707 18.5041L68.0768 2.37273L63.6585 2.21432L59.2401 2.05592L54.6698 19.2647ZM80.0798 19.6981V37.2986H85.8109C95.5522 37.2986 98.8314 36.2656 101.508 32.354C102.463 30.9575 102.751 29.7568 102.75 27.1794C102.748 23.0785 101.384 20.543 98.5488 19.3643L96.5818 18.547L98.4144 17.3188C99.4225 16.6428 100.558 15.4784 100.939 14.7315C102.04 12.5656 101.819 7.6116 100.526 5.5023C98.7816 2.65653 96.6985 2.09772 87.8392 2.09772H80.0798V19.6981ZM137.037 5.08429C137.037 6.81848 137.2 7.04784 138.436 7.04784C141.031 7.04784 140.841 3.68396 138.225 3.29675C137.198 3.14494 137.037 3.38805 137.037 5.08429ZM115.833 6.57098C113.793 7.75076 113.259 10.4178 113.259 19.4231C113.259 28.6491 113.799 31.1643 116.035 32.3545C118.046 33.4248 120.852 32.5646 121.967 30.5362C122.779 29.0577 122.936 27.3087 122.936 19.6981C122.936 9.8012 122.47 7.63965 120.107 6.56933C118.416 5.80261 117.162 5.80316 115.833 6.57098ZM35.8413 12.6178V18.1878L38.6521 17.9194C42.5849 17.5437 43.8595 16.172 43.8595 12.3153C43.8595 8.22102 42.732 7.04784 38.797 7.04784H35.8413V12.6178ZM86.7155 11.7912V16.5345L89.8487 16.276C93.9353 15.9388 95.2541 14.5302 94.8471 10.9381C94.4976 7.85746 93.4166 7.04784 89.6513 7.04784H86.7155V11.7912ZM63.2592 8.75673C62.8201 10.0641 60.1725 22.5984 60.1725 23.3689C60.1725 23.9002 61.1523 24.0983 63.7773 24.0983C67.2307 24.0983 67.3706 24.046 67.1008 22.8607C66.9459 22.1804 66.1662 18.6531 65.3688 15.023C63.8343 8.03786 63.6673 7.5412 63.2592 8.75673ZM86.7155 26.5733V31.7984H89.6823C94.0282 31.7984 95.5632 30.4487 95.5632 26.6294C95.5632 22.622 94.1874 21.3482 89.8598 21.3482H86.7155V26.5733ZM18.0149 47.1873C11.0689 48.4286 6.08872 51.5637 3.35422 56.4154L2.11002 58.6226L6.67211 59.2546C9.18098 59.6022 11.8558 60.0015 12.6161 60.1417C13.7442 60.3502 14.1512 60.0746 14.828 58.644C16.1491 55.8527 18.3035 54.619 21.7995 54.6531C24.3222 54.6779 25.0615 54.9276 26.3195 56.1783C27.5444 57.3966 27.8231 58.171 27.8231 60.354C27.8231 64.8251 25.2943 66.4399 18.2842 66.446L14.828 66.4493V70.0244V73.5994H17.9009C25.0023 73.5994 28.6525 75.9068 28.6525 80.3943C28.6525 84.4232 25.8727 86.7998 21.1602 86.7998C17.2374 86.7998 14.8452 85.4137 13.5639 82.398L12.4856 79.8591L6.93699 80.5714C3.88509 80.963 1.26175 81.4091 1.10746 81.5631C0.436698 82.2303 2.28421 86.2921 4.28766 88.556C10.815 95.9316 28.1084 97.1719 37.5716 90.943C42.1884 87.9042 44.073 81.0846 41.6625 76.1378C40.5582 73.8712 36.7294 71.0248 34.0441 70.4737C33.2075 70.3021 32.5334 70.0073 32.5461 69.8181C32.5588 69.6289 33.8058 68.8974 35.3171 68.1923C39.1509 66.4036 40.9724 63.8593 41.2611 59.8898C41.6642 54.3473 38.1528 49.901 31.919 48.0596C28.4811 47.0443 21.3278 46.5954 18.0149 47.1873ZM61.5245 47.1625C51.2197 48.7839 46.3474 55.2103 45.4433 68.3743C44.5707 81.084 48.7623 90.3617 56.7877 93.483C60.9676 95.1088 70.6266 95.2661 74.9249 93.7789C83.4076 90.8429 87.2685 83.6707 87.2685 70.8494C87.2685 58.0577 83.1748 50.4593 74.9796 48.0381C71.5152 47.0151 65.1122 46.5982 61.5245 47.1625ZM108.558 46.9931C107.95 47.1119 106.178 47.4656 104.62 47.778C96.6493 49.3774 92.3217 55.3946 91.0603 66.6319C89.9472 76.547 92.1082 85.0848 96.949 89.8996C100.162 93.0952 103.124 94.2711 109.43 94.8542C118.698 95.7105 126.756 92.1778 130.07 85.8053C132.591 80.9564 133.666 68.2863 132.106 61.7995C130.605 55.5502 127.149 50.8223 122.689 48.9137C118.719 47.2153 112.051 46.3089 108.558 46.9931ZM64.0433 54.5393C60.8847 55.575 60.142 57.8256 59.7986 67.403C59.4591 76.8836 60.1597 83.5838 61.7064 85.6447C63.1536 87.572 65.7045 88.2381 68.4766 87.4119C72.0931 86.3345 72.5299 84.9039 72.7848 73.3244C73.0315 62.0976 72.4426 57.4736 70.5353 55.6613C68.9521 54.1565 66.5019 53.7335 64.0433 54.5393ZM109.533 54.4128C106.881 55.1745 106.008 57.3697 105.462 64.6496C104.889 72.2893 105.643 83.5943 106.848 85.4236C108.797 88.3827 114.95 88.3904 116.897 85.4357C118.086 83.6311 118.815 72.5907 118.268 64.6705C117.749 57.1508 116.932 55.2015 113.949 54.3776C112.809 54.063 111.752 53.8259 111.6 53.8518C111.448 53.8771 110.517 54.1295 109.533 54.4128Z" fill="#EAE4D1"/>
</svg>
