<svg width="120" height="95" viewBox="0 0 120 95" fill="none" xmlns="http://www.w3.org/2000/svg">
<path d="M0.895508 0.513672V35.8702H9.27407V22.2824H13.7775L22.1631 35.8702H31.911L22.6148 21.0471C27.7182 19.9884 30.4922 16.0567 30.4922 11.1016C30.4922 4.38179 25.5512 0.513672 15.9445 0.513672H0.895508ZM9.27407 7.02876H15.6268C20.0243 7.02876 21.6972 8.39107 21.6972 11.2216C21.6972 14.405 19.8761 15.8238 15.6268 15.8238H9.27407V7.02876Z" fill="#F3F1E4"/>
<path d="M60.5276 7.22685C57.1677 2.68111 52.5373 0.5 46.6786 0.5C36.4366 0.5 29.5615 7.32567 29.5615 18.33C29.5615 29.0803 36.726 35.8565 46.5022 35.8565C51.9161 35.8565 56.5466 33.7813 60.6194 29.4191V16.5019H45.154V22.6993H52.5232V26.7721C50.8086 27.9849 48.7645 28.6449 46.6645 28.6638C41.3494 28.6638 38.0813 25.2192 38.0813 18.4853C38.0813 11.215 41.3988 7.48802 46.9116 7.48802C50.2785 7.48802 53.0596 9.03385 55.3043 12.0902L60.5276 7.22685Z" fill="#F3F1E4"/>
<path d="M90.0029 0.513672V23.4118C90.0029 31.3245 95.0781 35.8702 104.741 35.8702C114.405 35.8702 119.12 31.1762 119.12 23.2635V0.513672H111.263V22.0495C111.263 26.2846 109.224 28.9245 104.741 28.9245C100.259 28.9245 98.2615 26.3058 98.2615 22.0495V0.513672H90.0029Z" fill="#F3F1E4"/>
<path fill-rule="evenodd" clip-rule="evenodd" d="M60.5771 29.705V0.51416H75.6473C85.247 0.51416 90.188 4.38227 90.188 11.1021C90.188 16.0572 87.4139 19.9888 82.3176 21.0476L91.6068 35.8707H81.8588L73.4591 22.2829H68.9557V28.2616C68.9292 28.2338 68.9023 28.2064 68.8751 28.1792C68.1586 27.4626 67.2456 26.9746 66.2517 26.7769C65.2577 26.5792 64.2275 26.6807 63.2913 27.0685C62.355 27.4563 61.5548 28.113 60.9918 28.9556C60.8322 29.1945 60.6937 29.4452 60.5771 29.705ZM75.2732 7.02925H68.9557V15.8243H75.2732C79.5224 15.8243 81.3436 14.4055 81.3436 11.2221C81.3436 8.39156 79.6707 7.02925 75.2732 7.02925Z" fill="#F3F1E4"/>
<path d="M65.2079 35.8928C66.0424 35.8928 66.8583 35.6453 67.5522 35.1817C68.2461 34.718 68.7869 34.059 69.1063 33.288C69.4257 32.517 69.5092 31.6685 69.3464 30.85C69.1836 30.0315 68.7817 29.2796 68.1916 28.6895C67.6015 28.0994 66.8496 27.6975 66.0311 27.5347C65.2126 27.3719 64.3641 27.4554 63.5931 27.7748C62.8221 28.0942 62.1631 28.635 61.6994 29.3289C61.2358 30.0228 60.9883 30.8387 60.9883 31.6732C60.9883 32.7923 61.4328 33.8656 62.2242 34.6569C63.0155 35.4483 64.0888 35.8928 65.2079 35.8928Z" fill="#F3F1E4"/>
<path d="M110.829 84.4691H112.635V91.2142H112.728L117.453 84.4691H119.086V94.3644H117.266V87.6242H117.183L112.443 94.3644H110.829V84.4691ZM115.932 81.918H117.261C117.261 82.4817 117.054 82.9391 116.638 83.2902C116.226 83.6381 115.667 83.812 114.96 83.812C114.26 83.812 113.703 83.6381 113.287 83.2902C112.875 82.9391 112.671 82.4817 112.674 81.918H113.994C113.994 82.1499 114.066 82.3577 114.21 82.5413C114.357 82.7216 114.607 82.8118 114.96 82.8118C115.307 82.8118 115.554 82.7216 115.701 82.5413C115.851 82.3609 115.928 82.1531 115.932 81.918Z" fill="#F3F1E4"/>
<path d="M100.589 84.4692H102.394V91.2143H102.488L107.212 84.4692H108.846V94.3646H107.026V87.6243H106.943L102.203 94.3646H100.589V84.4692Z" fill="#F3F1E4"/>
<path d="M90.3076 94.3646V84.4692H92.1278V88.6583H96.7839V84.4692H98.609V94.3646H96.7839V90.161H92.1278V94.3646H90.3076Z" fill="#F3F1E4"/>
<path d="M81.6001 94.3646H79.6572L83.1947 84.4692H85.4417L88.9841 94.3646H87.0412L84.3574 86.4986H84.2789L81.6001 94.3646ZM81.6639 90.4847H86.9627V91.9246H81.6639V90.4847Z" fill="#F3F1E4"/>
<path d="M78.133 84.4692V94.3646H76.3275V85.9574H71.9315V94.3646H70.126V84.4692H78.133Z" fill="#F3F1E4"/>
<path d="M57.4141 84.4692H59.6415L62.6245 91.6395H62.7423L65.7253 84.4692H67.9528V94.3646H66.2061V87.5664H66.1129L63.3359 94.3356H62.0309L59.2539 87.5519H59.1607V94.3646H57.4141V84.4692Z" fill="#F3F1E4"/>
<path d="M55.6926 89.4174C55.6926 90.4836 55.4898 91.3968 55.0842 92.157C54.6819 92.914 54.1324 93.4938 53.4357 93.8964C52.7423 94.2991 51.9557 94.5004 51.0758 94.5004C50.1959 94.5004 49.4077 94.2991 48.711 93.8964C48.0175 93.4906 47.468 92.9091 47.0625 92.1522C46.6601 91.392 46.459 90.4804 46.459 89.4174C46.459 88.3512 46.6601 87.4396 47.0625 86.6827C47.468 85.9225 48.0175 85.3411 48.711 84.9384C49.4077 84.5358 50.1959 84.3345 51.0758 84.3345C51.9557 84.3345 52.7423 84.5358 53.4357 84.9384C54.1324 85.3411 54.6819 85.9225 55.0842 86.6827C55.4898 87.4396 55.6926 88.3512 55.6926 89.4174ZM53.8626 89.4174C53.8626 88.6669 53.7432 88.0339 53.5044 87.5186C53.2689 87 52.9418 86.6086 52.5231 86.3445C52.1045 86.0771 51.622 85.9434 51.0758 85.9434C50.5296 85.9434 50.0471 86.0771 49.6284 86.3445C49.2098 86.6086 48.881 87 48.6423 87.5186C48.4068 88.0339 48.289 88.6669 48.289 89.4174C48.289 90.168 48.4068 90.8025 48.6423 91.3211C48.881 91.8365 49.2098 92.2279 49.6284 92.4952C50.0471 92.7594 50.5296 92.8914 51.0758 92.8914C51.622 92.8914 52.1045 92.7594 52.5231 92.4952C52.9418 92.2279 53.2689 91.8365 53.5044 91.3211C53.7432 90.8025 53.8626 90.168 53.8626 89.4174Z" fill="#F3F1E4"/>
<path d="M43.7759 94.3646L40.469 90.0402H39.5761V94.3646H37.7559V84.4692H39.5761V88.5375H40.0324L43.6041 84.4692H45.8463L41.8771 88.9821L46.018 94.3646H43.7759Z" fill="#F3F1E4"/>
<path d="M26.3109 84.4692L28.5237 88.093H28.6022L30.8247 84.4692H32.9001L29.8042 89.4169L32.9491 94.3646H30.8394L28.6022 90.765H28.5237L26.2864 94.3646H24.1865L27.3609 89.4169L24.2258 84.4692H26.3109Z" fill="#F3F1E4"/>
<path d="M14.5488 84.4692H16.3543V91.2143H16.4476L21.1723 84.4692H22.8061V94.3646H20.9859V87.6243H20.9025L16.163 94.3646H14.5488V84.4692Z" fill="#F3F1E4"/>
<path d="M0.880859 84.4692H2.68637V91.2143H2.77959L7.50434 84.4692H9.13813V94.3646H7.3179V87.6243H7.23449L2.49503 94.3646H0.880859V84.4692Z" fill="#F3F1E4"/>
<path d="M108.812 78.5197V65.3677H114.16C115.142 65.3677 115.962 65.5111 116.618 65.7979C117.275 66.0848 117.768 66.4829 118.098 66.9924C118.429 67.4976 118.594 68.0799 118.594 68.7392C118.594 69.2529 118.49 69.7046 118.281 70.0942C118.072 70.4795 117.785 70.7963 117.42 71.0446C117.059 71.2887 116.646 71.462 116.181 71.5648V71.6932C116.69 71.7146 117.166 71.8559 117.609 72.1171C118.057 72.3782 118.42 72.7443 118.698 73.2152C118.977 73.6819 119.116 74.2384 119.116 74.8849C119.116 75.5828 118.94 76.2057 118.587 76.7537C118.24 77.2974 117.725 77.7277 117.042 78.0445C116.359 78.3613 115.518 78.5197 114.518 78.5197H108.812ZM111.636 76.2464H113.938C114.725 76.2464 115.299 76.0986 115.66 75.8032C116.02 75.5036 116.201 75.1054 116.201 74.6088C116.201 74.2449 116.112 73.9238 115.933 73.6455C115.755 73.3672 115.501 73.1489 115.17 72.9905C114.844 72.832 114.455 72.7528 114.003 72.7528H111.636V76.2464ZM111.636 70.8712H113.729C114.116 70.8712 114.46 70.8049 114.76 70.6722C115.064 70.5352 115.303 70.3425 115.477 70.0942C115.655 69.8459 115.744 69.5483 115.744 69.2015C115.744 68.7263 115.573 68.3431 115.229 68.052C114.89 67.7609 114.408 67.6153 113.782 67.6153H111.636V70.8712Z" fill="#F3F1E4"/>
<path d="M102.865 71.9433C102.865 73.3775 102.589 74.5977 102.037 75.6038C101.489 76.6099 100.741 77.3784 99.7933 77.9093C98.85 78.4359 97.7892 78.6992 96.6111 78.6992C95.4242 78.6992 94.3591 78.4337 93.4158 77.9028C92.4724 77.372 91.7268 76.6035 91.1791 75.5974C90.6313 74.5913 90.3574 73.3733 90.3574 71.9433C90.3574 70.5091 90.6313 69.2889 91.1791 68.2829C91.7268 67.2768 92.4724 66.5104 93.4158 65.9838C94.3591 65.4529 95.4242 65.1875 96.6111 65.1875C97.7892 65.1875 98.85 65.4529 99.7933 65.9838C100.741 66.5104 101.489 67.2768 102.037 68.2829C102.589 69.2889 102.865 70.5091 102.865 71.9433ZM100.002 71.9433C100.002 71.0143 99.8607 70.2308 99.5781 69.5929C99.2999 68.955 98.9065 68.4712 98.3978 68.1416C97.8892 67.8119 97.2936 67.6471 96.6111 67.6471C95.9285 67.6471 95.333 67.8119 94.8243 68.1416C94.3157 68.4712 93.9201 68.955 93.6375 69.5929C93.3593 70.2308 93.2201 71.0143 93.2201 71.9433C93.2201 72.8724 93.3593 73.6558 93.6375 74.2937C93.9201 74.9316 94.3157 75.4154 94.8243 75.7451C95.333 76.0747 95.9285 76.2396 96.6111 76.2396C97.2936 76.2396 97.8892 76.0747 98.3978 75.7451C98.9065 75.4154 99.2999 74.9316 99.5781 74.2937C99.8607 73.6558 100.002 72.8724 100.002 71.9433Z" fill="#F3F1E4"/>
<path d="M74.5713 67.6603V65.3677H85.5396V67.6603H81.4509V78.5197H78.66V67.6603H74.5713Z" fill="#F3F1E4"/>
<path d="M69.1989 69.9718H66.3427C66.2905 69.6079 66.184 69.2847 66.0232 69.0021C65.8623 68.7153 65.6558 68.4712 65.4037 68.27C65.1515 68.0688 64.8602 67.9147 64.5298 67.8076C64.2038 67.7006 63.8495 67.6471 63.4669 67.6471C62.7757 67.6471 62.1736 67.8162 61.6606 68.1544C61.1476 68.4883 60.7498 68.9764 60.4673 69.6186C60.1847 70.2565 60.0434 71.0314 60.0434 71.9433C60.0434 72.8809 60.1847 73.6687 60.4673 74.3066C60.7542 74.9445 61.1541 75.4261 61.6671 75.7515C62.1801 76.0769 62.7735 76.2396 63.4473 76.2396C63.8256 76.2396 64.1755 76.1903 64.4972 76.0919C64.8233 75.9934 65.1124 75.85 65.3645 75.6616C65.6167 75.4689 65.8253 75.2356 65.9905 74.9616C66.1601 74.6876 66.2775 74.3751 66.3427 74.024L69.1989 74.0369C69.125 74.6405 68.9402 75.2228 68.6446 75.7836C68.3533 76.3402 67.9599 76.8389 67.4643 77.2799C66.973 77.7166 66.3862 78.0634 65.7036 78.3203C65.0254 78.5729 64.2581 78.6992 63.4017 78.6992C62.2105 78.6992 61.1454 78.4337 60.2064 77.9028C59.2717 77.372 58.5327 76.6035 57.9893 75.5974C57.4502 74.5913 57.1807 73.3733 57.1807 71.9433C57.1807 70.5091 57.4545 69.2889 58.0023 68.2829C58.5501 67.2768 59.2935 66.5104 60.2325 65.9838C61.1715 65.4529 62.2279 65.1875 63.4017 65.1875C64.1755 65.1875 64.8928 65.2945 65.5536 65.5086C66.2188 65.7227 66.8078 66.0352 67.3208 66.4462C67.8338 66.8529 68.2512 67.3517 68.5729 67.9425C68.8989 68.5333 69.1076 69.2097 69.1989 69.9718Z" fill="#F3F1E4"/>
<path d="M40.0557 65.3677H42.8727V73.6391H42.9836L48.7547 65.3677H51.2261V78.5197H48.4026V70.2419H48.3047L42.501 78.5197H40.0557V65.3677Z" fill="#F3F1E4"/>
<path d="M24.3096 78.5197V65.3677H29.5785C30.5915 65.3677 31.4544 65.5582 32.1674 65.9392C32.8803 66.316 33.4238 66.8404 33.7976 67.5126C34.1759 68.1805 34.365 68.9511 34.365 69.8245C34.365 70.6978 34.1737 71.4685 33.7911 72.1363C33.4085 72.8042 32.8543 73.3244 32.1283 73.6969C31.4066 74.0693 30.5328 74.2556 29.5068 74.2556H26.1485V72.0272H29.0503C29.5938 72.0272 30.0415 71.9351 30.3937 71.751C30.7502 71.5627 31.0153 71.3036 31.1892 70.974C31.3675 70.64 31.4566 70.2569 31.4566 69.8245C31.4566 69.3878 31.3675 69.0067 31.1892 68.6814C31.0153 68.3517 30.7502 68.097 30.3937 67.9172C30.0372 67.7331 29.5851 67.641 29.0373 67.641H27.1332V78.5197H24.3096Z" fill="#F3F1E4"/>
<path d="M3.87438 65.3673V78.5193H1.05078V65.3673H3.87438ZM6.74362 71.0892V73.2598H2.47888V71.0892H6.74362ZM18.3706 71.9433C18.3706 73.3775 18.0945 74.5977 17.5424 75.6038C16.9946 76.6099 16.2469 77.3784 15.2992 77.9093C14.3558 78.4359 13.2951 78.6992 12.1169 78.6992C10.9301 78.6992 9.86501 78.4337 8.92164 77.9028C7.97826 77.372 7.2327 76.6035 6.68493 75.5974C6.13717 74.5913 5.86328 73.3733 5.86328 71.9433C5.86328 70.5091 6.13717 69.2889 6.68493 68.2829C7.2327 67.2768 7.97826 66.5104 8.92164 65.9838C9.86501 65.4529 10.9301 65.1875 12.1169 65.1875C13.2951 65.1875 14.3558 65.4529 15.2992 65.9838C16.2469 66.5104 16.9946 67.2768 17.5424 68.2829C18.0945 69.2889 18.3706 70.5091 18.3706 71.9433ZM15.5079 71.9433C15.5079 71.0143 15.3666 70.2308 15.084 69.5929C14.8058 68.955 14.4123 68.4712 13.9037 68.1416C13.395 67.8119 12.7995 67.6471 12.1169 67.6471C11.4344 67.6471 10.8388 67.8119 10.3302 68.1416C9.82153 68.4712 9.42593 68.955 9.14335 69.5929C8.86512 70.2308 8.72601 71.0143 8.72601 71.9433C8.72601 72.8724 8.86512 73.6558 9.14335 74.2937C9.42593 74.9316 9.82153 75.4154 10.3302 75.7451C10.8388 76.0747 11.4344 76.2396 12.1169 76.2396C12.7995 76.2396 13.395 76.0747 13.9037 75.7451C14.4123 75.4154 14.8058 74.9316 15.084 74.2937C15.3666 73.6558 15.5079 72.8724 15.5079 71.9433Z" fill="#F3F1E4"/>
<path d="M119.073 46.3364V48.629H113.035V59.4885H110.211V46.3364H119.073Z" fill="#F3F1E4"/>
<path d="M91.002 59.4885V46.3364H93.8255V51.7629H99.5575V46.3364H102.375V59.4885H99.5575V54.0555H93.8255V59.4885H91.002Z" fill="#F3F1E4"/>
<path d="M71.9893 46.3364H74.8063V54.6078H74.9172L80.6883 46.3364H83.1597V59.4885H80.3361V51.2106H80.2383L74.4346 59.4885H71.9893V46.3364Z" fill="#F3F1E4"/>
<path d="M53.7051 48.629V46.3364H64.6734V48.629H60.5847V59.4885H57.7937V48.629H53.7051Z" fill="#F3F1E4"/>
<path d="M35.2021 46.3362H38.0192V54.6076H38.1301L43.9012 46.3362H46.3726V59.4882H43.549V51.2104H43.4512L37.6475 59.4882H35.2021V46.3362ZM42.0883 42.894H44.0251C44.0207 43.6732 43.7273 44.3004 43.1447 44.7757C42.5665 45.2509 41.784 45.4885 40.7972 45.4885C39.806 45.4885 39.0213 45.2509 38.4431 44.7757C37.8649 44.3004 37.5758 43.6732 37.5758 42.894H39.4995C39.4951 43.1895 39.5908 43.4549 39.7864 43.6904C39.9864 43.9258 40.3233 44.0436 40.7972 44.0436C41.258 44.0436 41.5884 43.928 41.7884 43.6968C41.9883 43.4656 42.0883 43.198 42.0883 42.894Z" fill="#F3F1E4"/>
<path d="M18.4482 59.4885V46.3364H27.4472V48.629H21.2718V51.7629H26.9842V54.0555H21.2718V57.1958H27.4733V59.4885H18.4482Z" fill="#F3F1E4"/>
<path d="M1.05078 59.4885V46.3364H6.31975C7.33268 46.3364 8.19563 46.5269 8.90859 46.908C9.62156 47.2847 10.165 47.8092 10.5388 48.4813C10.9171 49.1492 11.1062 49.9198 11.1062 50.7932C11.1062 51.6666 10.9149 52.4372 10.5323 53.1051C10.1498 53.773 9.59547 54.2931 8.86947 54.6656C8.14781 55.0381 7.27399 55.2243 6.24802 55.2243H2.88971V52.9959H5.79155C6.33497 52.9959 6.78275 52.9039 7.13488 52.7198C7.49136 52.5314 7.75655 52.2724 7.93044 51.9427C8.10868 51.6088 8.1978 51.2256 8.1978 50.7932C8.1978 50.3565 8.10868 49.9755 7.93044 49.6501C7.75655 49.3205 7.49136 49.0657 7.13488 48.8859C6.7784 48.7018 6.32628 48.6098 5.77851 48.6098H3.87438V59.4885H1.05078Z" fill="#F3F1E4"/>
</svg>
