<svg width="1915" height="645" viewBox="0 0 1915 645" fill="none" xmlns="http://www.w3.org/2000/svg">
<mask id="mask0_188_6600" style="mask-type:alpha" maskUnits="userSpaceOnUse" x="-4" y="0" width="1919" height="645">
<path d="M-4 0H1915V645H-4V0Z" fill="#817757"/>
</mask>
<g mask="url(#mask0_188_6600)">
<path fill-rule="evenodd" clip-rule="evenodd" d="M117.503 690.762C98.5256 680.978 80.9669 668.471 65.4788 653.499C24.2248 613.62 1.04138 559.525 1.04138 503.111L1.04138 502.007L440.957 502.007L440.957 503.111C440.957 559.525 417.773 613.62 376.519 653.499C361.031 668.471 343.472 680.978 324.495 690.762L323.483 688.799C342.272 679.113 359.654 666.731 374.984 651.912C415.547 612.701 438.445 559.62 438.746 504.215L3.25241 504.215C3.55273 559.62 26.4507 612.701 67.0134 651.911C82.3436 666.731 99.7255 679.113 118.515 688.799L117.503 690.762Z" fill="#4F543E"/>
<path fill-rule="evenodd" clip-rule="evenodd" d="M435.544 208.057H653.374V508.662L435.544 208.057ZM439.871 210.265L651.166 501.852V210.265H439.871Z" fill="#4F543E"/>
<path fill-rule="evenodd" clip-rule="evenodd" d="M1.0415 208.057H440.957V1107.14H1.0415V208.057ZM3.24953 210.265V1104.93H438.749V210.265H3.24953Z" fill="#4F543E"/>
<path fill-rule="evenodd" clip-rule="evenodd" d="M0 504.216V502.008H430.156V504.216H0ZM437.629 668.125H857.208V1104.99H439.786L437.629 668.125ZM439.848 670.333L441.983 1102.78H855V670.333H439.848Z" fill="#4F543E"/>
<path fill-rule="evenodd" clip-rule="evenodd" d="M217.75 1106.03V498.82H219.958V1106.03H217.75Z" fill="#4F543E"/>
<path fill-rule="evenodd" clip-rule="evenodd" d="M438.59 209.825L217.59 503.775L215.825 502.448L436.825 208.498L438.59 209.825Z" fill="#4F543E"/>
<path fill-rule="evenodd" clip-rule="evenodd" d="M438.884 886.648L650.563 500.436L652.505 500.445L859.222 886.657L858.249 888.282H439.852L438.884 886.648ZM441.716 886.074H856.406L651.52 503.284L441.716 886.074Z" fill="#4F543E"/>
<path fill-rule="evenodd" clip-rule="evenodd" d="M1481.66 444.636L1699.86 58.4243L1701.78 58.434L1914.86 444.646L1913.9 446.284H1482.63L1481.66 444.636ZM1484.52 444.076H1912.03L1700.81 61.2321L1484.52 444.076Z" fill="#4F543E"/>
<path fill-rule="evenodd" clip-rule="evenodd" d="M1481.52 446.253V440.889H1483.73V446.253C1483.73 564.735 1579.78 660.784 1698.26 660.784C1816.74 660.784 1912.79 564.735 1912.79 446.253V440.889H1915V446.253C1915 565.955 1817.96 662.992 1698.26 662.992C1578.56 662.992 1481.52 565.955 1481.52 446.253Z" fill="#4F543E"/>
<path fill-rule="evenodd" clip-rule="evenodd" d="M1066.37 639.39C950.82 639.39 857.145 545.714 857.145 430.16H859.353C859.353 544.495 952.039 637.182 1066.37 637.182H1070.67C1185 637.182 1277.69 544.495 1277.69 430.16H1279.89C1279.89 545.714 1186.22 639.39 1070.67 639.39H1066.37Z" fill="#4F543E"/>
<path fill-rule="evenodd" clip-rule="evenodd" d="M1278.79 431.264L856.103 431.264L856.103 429.056L1278.79 429.056L1278.79 431.264Z" fill="#4F543E"/>
<path fill-rule="evenodd" clip-rule="evenodd" d="M651.165 314.296C651.165 255.622 698.73 208.057 757.405 208.057C816.079 208.057 863.644 255.622 863.644 314.296V320.733C863.644 379.408 816.079 426.973 757.405 426.973C698.73 426.973 651.165 379.408 651.165 320.733V314.296ZM757.405 210.265C699.95 210.265 653.373 256.841 653.373 314.296V320.733C653.373 378.188 699.95 424.765 757.405 424.765C814.86 424.765 861.436 378.188 861.436 320.733V314.296C861.436 256.841 814.86 210.265 757.405 210.265Z" fill="#4F543E"/>
<path fill-rule="evenodd" clip-rule="evenodd" d="M651.165 208.057H1483.73V317.546H651.165V208.057ZM653.373 210.265V315.338H1481.52V210.265H653.373Z" fill="#4F543E"/>
<path fill-rule="evenodd" clip-rule="evenodd" d="M1700.44 -437.775H1.04133V210.265H1700.44V-437.775ZM1698.23 -435.567V208.057H3.24935V-435.567H1698.23Z" fill="#4F543E"/>
<path fill-rule="evenodd" clip-rule="evenodd" d="M854.999 369.011C854.999 339.369 879.029 315.339 908.671 315.339C938.313 315.339 962.343 339.369 962.343 369.011V1104.99H854.999V369.011ZM908.671 317.547C880.248 317.547 857.207 340.588 857.207 369.011V1102.78H960.135V369.011C960.135 340.588 937.093 317.547 908.671 317.547Z" fill="#4F543E"/>
<path fill-rule="evenodd" clip-rule="evenodd" d="M960.134 372.229C960.134 340.809 985.605 315.339 1017.02 315.339C1048.44 315.339 1073.91 340.81 1073.91 372.229V1104.99H960.134V372.229ZM1017.02 317.547C986.824 317.547 962.342 342.029 962.342 372.229V1102.78H1071.71V372.229C1071.71 342.029 1047.22 317.547 1017.02 317.547Z" fill="#4F543E"/>
<path fill-rule="evenodd" clip-rule="evenodd" d="M1071.71 367.938C1071.71 338.888 1095.26 315.339 1124.31 315.339C1153.36 315.339 1176.9 338.888 1176.9 367.938V1104.99H1071.71V367.938ZM1124.31 317.547C1096.48 317.547 1073.91 340.108 1073.91 367.938V1102.78H1174.7V367.938C1174.7 340.108 1152.14 317.547 1124.31 317.547Z" fill="#4F543E"/>
<path fill-rule="evenodd" clip-rule="evenodd" d="M1174.7 367.938C1174.7 338.888 1198.25 315.339 1227.3 315.339C1256.35 315.339 1279.9 338.888 1279.9 367.938V1104.99H1174.7V367.938ZM1227.3 317.547C1199.47 317.547 1176.91 340.108 1176.91 367.938V1102.78H1277.69V367.938C1277.69 340.108 1255.13 317.547 1227.3 317.547Z" fill="#4F543E"/>
<path fill-rule="evenodd" clip-rule="evenodd" d="M1269.11 317.515C1269.11 259.433 1316.19 212.349 1374.27 212.349H1378.56C1436.65 212.349 1483.73 259.433 1483.73 317.515C1483.73 375.597 1436.65 422.682 1378.56 422.682H1374.27C1316.19 422.682 1269.11 375.597 1269.11 317.515ZM1374.27 214.557C1317.41 214.557 1271.31 260.653 1271.31 317.515C1271.31 374.378 1317.41 420.474 1374.27 420.474H1378.56C1435.43 420.474 1481.52 374.378 1481.52 317.515C1481.52 260.653 1435.43 214.557 1378.56 214.557H1374.27Z" fill="#4F543E"/>
<path fill-rule="evenodd" clip-rule="evenodd" d="M1481.52 208.057H1915V662.991H1481.52V208.057ZM1483.73 210.265V660.783H1912.79V210.265H1483.73Z" fill="#4F543E"/>
<path fill-rule="evenodd" clip-rule="evenodd" d="M1481.52 208.057H1915V1104.99H1481.52V208.057ZM1483.73 210.265V1102.78H1912.79V210.265H1483.73Z" fill="#4F543E"/>
</g>
</svg>
