<svg width="34" height="16" viewBox="0 0 34 16" fill="none" xmlns="http://www.w3.org/2000/svg">
<path d="M1 7C0.447715 7 9.65645e-08 7.44772 0 8C-9.65645e-08 8.55228 0.447715 9 1 9L1 7ZM33.7071 8.70711C34.0976 8.31659 34.0976 7.68342 33.7071 7.2929L27.3431 0.928937C26.9526 0.538412 26.3195 0.538412 25.9289 0.928937C25.5384 1.31946 25.5384 1.95263 25.9289 2.34315L31.5858 8.00001L25.9289 13.6569C25.5384 14.0474 25.5384 14.6805 25.9289 15.0711C26.3195 15.4616 26.9526 15.4616 27.3431 15.0711L33.7071 8.70711ZM1 9L33 9.00001L33 7.00001L1 7L1 9Z" fill="#817757"/>
</svg>
